<svg width="26" height="27" viewBox="0 0 26 27" fill="none" xmlns="http://www.w3.org/2000/svg">
<path d="M20.9498 16.1969L19.8665 14.3985C19.639 13.9977 19.4331 13.2394 19.4331 12.7952V10.0543C19.4331 7.50852 17.9381 5.30935 15.7823 4.28018C15.219 3.28352 14.179 2.66602 12.9873 2.66602C11.8065 2.66602 10.7448 3.30518 10.1815 4.31268C8.06898 5.36352 6.60648 7.54102 6.60648 10.0543V12.7952C6.60648 13.2394 6.40065 13.9977 6.17315 14.3877L5.07898 16.1969C4.64565 16.9227 4.54815 17.7244 4.81898 18.461C5.07898 19.1869 5.69648 19.7502 6.49815 20.021C8.59981 20.736 10.8098 21.0827 13.0198 21.0827C15.2298 21.0827 17.4398 20.736 19.5415 20.0319C20.2998 19.7827 20.8848 19.2085 21.1665 18.461C21.4481 17.7135 21.3723 16.8902 20.9498 16.1969Z" fill="#2B2E32"/>
<path d="M16.0661 22.1778C15.6111 23.4345 14.4086 24.3337 13.0003 24.3337C12.1445 24.3337 11.2995 23.987 10.7036 23.3695C10.357 23.0445 10.097 22.6112 9.94531 22.167C10.0861 22.1887 10.227 22.1995 10.3786 22.2212C10.6278 22.2537 10.8878 22.2862 11.1478 22.3078C11.7653 22.362 12.3936 22.3945 13.022 22.3945C13.6395 22.3945 14.257 22.362 14.8636 22.3078C15.0911 22.2862 15.3186 22.2753 15.5353 22.2428C15.7086 22.2212 15.882 22.1995 16.0661 22.1778Z" fill="#2B2E32"/>
</svg>
