<svg width="167" height="167" viewBox="0 0 167 167" fill="none" xmlns="http://www.w3.org/2000/svg">
<path d="M83.5 0C37.4915 0 0 37.4915 0 83.5C0 129.509 37.4915 167 83.5 167C129.509 167 167 129.509 167 83.5C167 37.4915 129.509 0 83.5 0ZM123.413 64.295L76.0685 111.64C74.8995 112.809 73.313 113.477 71.643 113.477C69.973 113.477 68.3865 112.809 67.2175 111.64L43.587 88.009C41.1655 85.5875 41.1655 81.5795 43.587 79.158C46.0085 76.7365 50.0165 76.7365 52.438 79.158L71.643 98.363L114.562 55.444C116.984 53.0225 120.992 53.0225 123.413 55.444C125.835 57.8655 125.835 61.79 123.413 64.295Z" fill="#176D3A"/>
</svg>
