<svg width="26" height="26" viewBox="0 0 26 26" fill="none" xmlns="http://www.w3.org/2000/svg">
<g clip-path="url(#clip0_1930_9511)">
<path d="M11.5412 3.86351C13.0666 3.86212 14.5581 4.31317 15.827 5.1596C17.096 6.00604 18.0854 7.20983 18.6701 8.61868C19.2548 10.0275 19.4085 11.5782 19.1118 13.0744C18.8151 14.5706 18.0812 15.9452 17.0031 17.0243C15.925 18.1034 14.5511 18.8385 13.0551 19.1366C11.5592 19.4347 10.0084 19.2824 8.59904 18.699C7.18965 18.1156 5.98496 17.1273 5.13736 15.8591C4.28977 14.5909 3.83735 13.0998 3.83735 11.5744C3.8466 9.5334 4.661 7.57854 6.10355 6.13468C7.5461 4.69081 9.50022 3.87462 11.5412 3.86351ZM11.5412 2.41992C9.73061 2.41992 7.96069 2.95682 6.45524 3.96273C4.9498 4.96863 3.77645 6.39837 3.08357 8.07113C2.39069 9.74389 2.2094 11.5845 2.56262 13.3603C2.91585 15.1361 3.78773 16.7673 5.068 18.0476C6.34828 19.3279 7.97945 20.1997 9.75524 20.553C11.531 20.9062 13.3717 20.7249 15.0445 20.032C16.7172 19.3391 18.1469 18.1658 19.1529 16.6603C20.1588 15.1549 20.6957 13.385 20.6957 11.5744C20.6957 9.14647 19.7312 6.818 18.0144 5.1012C16.2976 3.38441 13.9691 2.41992 11.5412 2.41992Z" fill="#484848"/>
<path d="M24.6937 23.75L19.5039 18.5249L18.5039 19.5178L23.6938 24.7429C23.759 24.8086 23.8365 24.8607 23.9218 24.8964C24.0072 24.9322 24.0987 24.9507 24.1913 24.951C24.2838 24.9514 24.3755 24.9335 24.4611 24.8983C24.5467 24.8632 24.6246 24.8116 24.6902 24.7464C24.7559 24.6812 24.808 24.6037 24.8438 24.5184C24.8795 24.433 24.898 24.3415 24.8983 24.2489C24.8987 24.1564 24.8808 24.0647 24.8457 23.9791C24.8106 23.8935 24.7589 23.8156 24.6937 23.75Z" fill="#484848"/>
</g>
<defs>
<clipPath id="clip0_1930_9511">
<rect width="25.3508" height="25.3508" fill="white" transform="translate(0.0429688 0.307617)"/>
</clipPath>
</defs>
</svg>
