<svg width="43" height="43" viewBox="0 0 43 43" fill="none" xmlns="http://www.w3.org/2000/svg">
<rect x="0.0449219" y="0.147125" width="42.0663" height="42.0663" rx="9.89796" fill="#EAEFEA"/>
<path d="M28.5274 20.5668V16.8334C28.5274 13.3016 27.7036 12.4165 24.3909 12.4165H17.7654C14.4527 12.4165 13.6289 13.3016 13.6289 16.8334V26.7015C13.6289 29.0327 14.9084 29.5848 16.4596 27.9197L16.4684 27.9109C17.187 27.1485 18.2825 27.2098 18.9047 28.0424L19.7899 29.2255" stroke="#112813" stroke-width="1.31457" stroke-linecap="round" stroke-linejoin="round"/>
<path d="M29.8416 29.9441L28.9652 29.0677M17.5723 16.7984H24.5833M18.4486 20.3039H23.7069M26.5114 29.4183C27.2551 29.4183 27.9685 29.1228 28.4944 28.5969C29.0203 28.071 29.3158 27.3576 29.3158 26.6139C29.3158 25.8701 29.0203 25.1568 28.4944 24.6308C27.9685 24.1049 27.2551 23.8094 26.5114 23.8094C25.7676 23.8094 25.0543 24.1049 24.5283 24.6308C24.0024 25.1568 23.7069 25.8701 23.7069 26.6139C23.7069 27.3576 24.0024 28.071 24.5283 28.5969C25.0543 29.1228 25.7676 29.4183 26.5114 29.4183Z" stroke="#112813" stroke-width="1.31457" stroke-linecap="round" stroke-linejoin="round"/>
</svg>
