<svg width="43" height="43" viewBox="0 0 43 43" fill="none" xmlns="http://www.w3.org/2000/svg">
<rect x="0.0449219" y="0.330803" width="42.0663" height="42.0663" rx="9.89796" fill="#EAEFEA"/>
<path d="M26.3371 27.3759H25.6711C24.97 27.3759 24.3039 27.6476 23.8132 28.1384L22.3145 29.6195C21.631 30.2943 20.518 30.2943 19.8344 29.6195L18.3358 28.1384C17.845 27.6476 17.1702 27.3759 16.4778 27.3759H15.8206C14.3658 27.3759 13.1914 26.2104 13.1914 24.7731V15.2118C13.1914 13.7745 14.3658 12.6089 15.8206 12.6089H26.3371C27.7919 12.6089 28.9663 13.7745 28.9663 15.2118V24.7731C28.9663 26.2016 27.7919 27.3759 26.3371 27.3759Z" stroke="#112813" stroke-width="1.31457" stroke-miterlimit="10" stroke-linecap="round" stroke-linejoin="round"/>
<path d="M16.6953 18.875C16.6953 18.06 17.3614 17.394 18.1764 17.394C18.9914 17.394 19.6575 18.06 19.6575 18.875C19.6575 20.5226 17.3175 20.6979 16.8005 22.2666C16.6953 22.5909 16.967 22.9152 17.3088 22.9152H19.6575M24.6178 22.9064V17.9023C24.6183 17.7915 24.5826 17.6837 24.5162 17.5951C24.4497 17.5065 24.3562 17.442 24.2497 17.4115C24.1426 17.3812 24.0285 17.3862 23.9244 17.4256C23.8202 17.4651 23.7315 17.5369 23.6713 17.6306C23.0403 18.6472 22.3567 19.804 21.7608 20.8206C21.6644 20.9871 21.6644 21.2062 21.7608 21.3727C21.8572 21.5392 22.0412 21.6444 22.2428 21.6444H25.4591" stroke="#112813" stroke-width="1.31457" stroke-linecap="round" stroke-linejoin="round"/>
</svg>
