<svg width="24" height="24" viewBox="0 0 24 24" fill="none" xmlns="http://www.w3.org/2000/svg">
<g id="la:donate">
<path id="Vector" d="M12 2.25098C7.8645 2.25098 4.5 5.61548 4.5 9.75098C4.5 13.8865 7.8645 17.251 12 17.251C16.1355 17.251 19.5 13.8865 19.5 9.75098C19.5 5.61548 16.1355 2.25098 12 2.25098ZM12 3.75098C15.3082 3.75098 18 6.44273 18 9.75098C18 13.0592 15.3082 15.751 12 15.751C8.69175 15.751 6 13.0592 6 9.75098C6 6.44273 8.69175 3.75098 12 3.75098ZM3.25 15.751C2.2835 15.751 1.5 16.5345 1.5 17.501V21.751H3V17.251H7.035C6.39904 16.8257 5.81944 16.3217 5.31 15.751H3.25ZM18.69 15.751C18.1806 16.3217 17.601 16.8257 16.965 17.251H19.25C20.2165 17.251 21 18.0345 21 19.001V21.751H22.5V17.501C22.5 16.5345 21.7165 15.751 20.75 15.751H18.69ZM4.5 18.751V20.251H19.5V18.751H4.5Z" fill="#242424"/>
<path id="&#226;&#130;&#166;&#226;&#128;&#142;" d="M9.56641 12.001V10.4443H8.99902V9.97787H9.56641V9.52409H8.99902V9.0577H9.56641V7.50098H11.1023L11.8653 9.0577H12.7555V7.50098H13.8414V9.0577H14.399V9.52409H13.8414V9.97787H14.399V10.4443H13.8414V12.001H12.2958L11.5132 10.4443H10.6523V12.001H9.56641ZM10.6523 9.97787H11.2979L11.0827 9.52409H10.6327L10.6523 9.97787ZM12.7849 11.0178H12.8338L12.7947 10.4443H12.5305L12.7849 11.0178ZM10.6132 9.0577H10.8871L10.6034 8.45266H10.5642L10.6132 9.0577ZM12.3251 9.97787H12.7751L12.7555 9.52409H12.1001L12.3251 9.97787Z" fill="#242424"/>
</g>
</svg>
