<svg width="19" height="19" viewBox="0 0 19 19" fill="none" xmlns="http://www.w3.org/2000/svg">
<path d="M17.25 6.47912V3.27088C17.25 2.00824 16.7418 1.5 15.4791 1.5H12.2709C11.0082 1.5 10.5 2.00824 10.5 3.27088V6.47912C10.5 7.74176 11.0082 8.25 12.2709 8.25H15.4791C16.7418 8.25 17.25 7.74176 17.25 6.47912Z" stroke="#999999" stroke-width="2" stroke-linecap="round" stroke-linejoin="round"/>
<path d="M8.25 6.1077V2.89927C8.25 1.90282 7.74176 1.5 6.47912 1.5H3.27088C2.00824 1.5 1.5 1.90282 1.5 2.89927V6.10064C1.5 7.10416 2.00824 7.49991 3.27088 7.49991H6.47912C7.74176 7.50698 8.25 7.10416 8.25 6.1077Z" stroke="#999999" stroke-width="2" stroke-linecap="round" stroke-linejoin="round"/>
<path d="M8.25 15.4791V12.2709C8.25 11.0082 7.74176 10.5 6.47912 10.5H3.27088C2.00824 10.5 1.5 11.0082 1.5 12.2709V15.4791C1.5 16.7418 2.00824 17.25 3.27088 17.25H6.47912C7.74176 17.25 8.25 16.7418 8.25 15.4791Z" stroke="#999999" stroke-width="2" stroke-linecap="round" stroke-linejoin="round"/>
<path d="M11.25 12H15.75" stroke="#999999" stroke-width="2" stroke-linecap="round"/>
<path d="M11.25 15H15.75" stroke="#999999" stroke-width="2" stroke-linecap="round"/>
</svg>
