<svg width="351" height="386" viewBox="0 0 351 386" fill="none" xmlns="http://www.w3.org/2000/svg">
<path fill-rule="evenodd" clip-rule="evenodd" d="M-0.271759 0.837879C6.51556 5.06851 84.5882 57.3493 84.5882 57.6636C84.5882 57.8927 81.949 58.5971 78.7226 59.229C75.4969 59.861 65.9189 62.1475 57.4389 64.3094C22.3372 73.2599 -9.99388 84.3159 -43.7676 98.9177C-56.9447 104.614 -83 117.298 -83 118.015C-83 118.324 -82.8921 118.576 -82.7607 118.576C-82.6293 118.576 -75.7662 115.287 -67.5102 111.267C-33.8062 94.854 -0.154442 81.8619 35.8884 71.3453C46.8024 68.1607 71.3112 61.9364 80.9784 59.8938L86.4176 58.7445L89.6929 60.9801C91.4942 62.2105 100.313 68.2994 109.29 74.5117C118.267 80.7239 125.942 85.6971 126.346 85.5624C126.749 85.4277 118.65 79.5023 108.348 72.3947C98.0449 65.2865 89.3604 59.2304 89.0487 58.9368C88.3448 58.2741 92.005 57.4766 109.056 54.5769C173.88 43.5523 242.404 42.1651 305.134 50.6076C348.993 56.5109 392.317 68.5286 425.325 83.9487C432.241 87.1801 434.487 87.0836 427.976 83.8354C416.419 78.0688 392.902 69.2718 375.543 64.2223C346.077 55.6498 317.421 50.3027 280.666 46.519C268.254 45.2417 241.682 44.197 221.675 44.2003C177.374 44.2084 137.78 47.7642 98.6656 55.2477L86.9344 57.492L80.9013 53.4349C64.2336 42.2261 12.3925 7.73033 6.76627 4.10417C3.23016 1.825 -0.0880814 -0.0219183 -0.607605 0.000196549C-1.25114 0.0270024 -1.14388 0.29372 -0.271759 0.837879ZM283.467 117.561C282.427 118.103 280.999 119.232 280.294 120.07C278.738 121.916 275.759 130.903 272.266 144.291C269.783 153.803 268.231 158.005 269.221 152.535C270.501 145.469 271.592 135.038 271.603 129.771C271.615 124.397 271.471 123.731 269.971 122.232C266.48 118.741 261.536 120.795 258.858 126.847C258.152 128.442 255.753 137.993 253.528 148.071C249.785 165.02 248.201 170.95 249.152 164.456C250.574 154.756 251.312 145.149 250.808 142.915C249.846 138.647 246.464 137.469 242.36 139.97C239.814 141.522 238.584 144.876 237.071 154.388C236.488 158.051 235.864 161.286 235.684 161.577C235.504 161.869 233.258 160.581 230.693 158.715C228.128 156.85 225.675 155.442 225.244 155.586C224.811 155.73 226.924 157.585 229.938 159.708C232.951 161.831 235.418 163.807 235.418 164.099C235.418 164.391 234.782 167.763 234.006 171.592C232.135 180.817 228.649 192.219 224.978 201.123C217.063 220.323 216.062 237.884 222.064 252.296C224.931 259.181 228.328 263.762 237.698 273.38C247.332 283.269 262.902 300.237 262.902 300.846C262.902 301.081 260.941 302.895 258.545 304.877C256.148 306.859 254.187 308.707 254.187 308.984C254.187 309.26 259.014 313.5 264.913 318.405C270.812 323.31 275.635 327.474 275.631 327.66C275.626 327.846 274.57 328.679 273.284 329.511C271.998 330.344 270.958 331.249 270.974 331.521C271.02 332.375 295.622 351.117 296.696 351.117C297.256 351.117 298.755 350.622 300.024 350.016L302.334 348.915L324.682 366.537C336.975 376.229 347.541 384.596 348.166 385.13C348.79 385.665 349.63 385.992 350.034 385.857C350.437 385.723 340.214 377.324 327.315 367.192C314.415 357.061 303.847 348.595 303.828 348.379C303.809 348.162 306.464 346.406 309.727 344.475C312.989 342.544 318.193 339.06 321.29 336.733C328.747 331.13 344.32 315.098 351.34 305.799L356.967 298.344L366.077 304.118C371.087 307.293 387.848 317.943 403.324 327.785C428.123 343.554 434.623 347.385 431.12 344.166C430.589 343.678 413.831 332.933 393.879 320.288L357.603 297.298L359.945 293.367C361.233 291.205 362.496 289.307 362.75 289.15C363.004 288.993 368.923 292.633 375.903 297.239C397.349 311.391 430.513 330.543 431.634 329.422C432.19 328.866 432.934 329.316 420.77 322.84C406.758 315.379 395.879 308.825 378.015 297.078L363.415 287.478L364.776 284.811C365.524 283.345 366.135 281.756 366.134 281.281C366.132 280.627 344.743 265.839 338.913 262.461C338.248 262.075 337.695 262.676 336.91 264.639C336.313 266.129 335.579 267.349 335.279 267.349C334.978 267.349 330.017 263.881 324.253 259.642C318.49 255.403 313.61 251.935 313.409 251.935C313.208 251.935 310.773 253.967 307.999 256.45L302.954 260.964L300.641 258.292C297.384 254.53 293.859 248.546 292.318 244.165C289.383 235.816 288.717 215.849 291.066 206.664C291.808 203.763 292.638 201.171 292.91 200.906C293.181 200.64 298.531 203.28 304.799 206.772C339.818 226.282 377.024 242.085 407.028 250.194C416.59 252.778 431.831 255.892 431.831 255.261C431.831 254.554 431.05 254.339 422.111 252.584C395.566 247.372 355.429 232.159 321.893 214.6C313.741 210.332 294.586 199.872 293.856 199.291C293.457 198.973 295.91 194.68 298.862 190.531C302.709 185.124 303.159 182.885 300.861 180.588L299.119 178.847L300.752 173.214C306.834 152.233 309.172 134.006 306.203 130.715C304.5 128.826 301.665 128.92 299.257 130.946C297.139 132.727 295.401 136.892 287.077 160.126C284.501 167.313 282.383 172.835 282.368 172.397C282.354 171.959 283.689 165.475 285.335 157.988C292.034 127.529 292.396 119.647 287.207 117.284C285.296 116.413 285.729 116.382 283.467 117.561ZM56.4133 118.933C54.2869 121.196 53.931 126.879 55.387 135.33C56.3053 140.66 63.1859 172.472 64.2034 176.092C65.2103 179.674 62.3774 172.3 56.5246 156.105C52.8611 145.969 49.392 136.581 48.8155 135.243C47.5948 132.408 44.1726 129.299 42.2742 129.299C40.2357 129.299 37.6789 132.276 37.5536 134.797C37.207 141.745 39.7651 156.442 43.8757 171.119L46.11 179.097L44.5681 180.638C42.2212 182.984 42.6027 185.403 46.0952 190.319C50.0872 195.936 52.7129 201.132 54.0563 206.073C56.4823 214.99 55.9501 235.448 53.0776 243.698C51.5981 247.947 45.7158 257.006 41.2452 261.921L37.9524 265.541L33.4342 264.643L28.9161 263.745L25.7487 266.787C13.2372 278.798 1.77416 289.464 1.37664 289.464C0.812202 289.464 -2.30762 280.128 -2.93507 276.563C-3.17841 275.181 -3.67916 274.05 -4.04786 274.05C-4.97295 274.05 -4.20605 277.747 -1.77804 284.993L0.237709 291.006L-2.48929 293.731C-4.21277 295.455 -5.44353 296.218 -5.83501 295.809C-6.60324 295.004 -9.26119 286.418 -9.26119 284.742C-9.26119 284.065 -9.6091 283.297 -10.0334 283.034C-11.1094 282.369 -10.2922 287.144 -8.3294 292.995L-6.78692 297.592L-33.6647 323.175C-59.8896 348.137 -75.2675 362.802 -80.6209 367.956C-82.0776 369.358 -83.0751 370.699 -82.8384 370.937C-82.6011 371.174 -78.9859 368.093 -74.8056 364.09C-26.1232 317.485 -6.67094 299.17 -6.31164 299.602C-6.19835 299.739 -4.93005 302.111 -3.49348 304.875C-0.244278 311.124 5.59114 319.055 10.6972 324.159C18.6952 332.155 31.6987 341.401 42.6912 346.908C46.0094 348.571 48.8121 350.01 48.9201 350.106C49.2432 350.393 43.7765 358.142 33.3505 372.178C27.9347 379.47 23.6779 385.609 23.8911 385.823C24.4214 386.353 24.0982 386.757 36.2269 370.337C42.1669 362.296 47.9279 354.623 49.0287 353.288L51.031 350.86L54.6288 351.994C58.6871 353.272 60.4555 353.424 60.4555 352.492C60.4555 352.142 58.6456 351.349 56.4334 350.728C54.2212 350.108 52.4113 349.445 52.4113 349.255C52.4113 348.818 57.1011 341.735 57.3906 341.735C57.5086 341.735 58.8882 342.187 60.4555 342.74C63.6578 343.87 65.4061 344.036 64.8637 343.158C64.664 342.835 63.1376 342.227 61.4724 341.808C59.8073 341.389 58.4444 340.865 58.4444 340.645C58.4444 340.425 62.8185 334.334 68.1646 327.11C78.1381 313.633 78.7045 312.481 77.2452 308.644C76.6539 307.089 77.5046 305.983 88.4736 294.028C95.0008 286.914 104.263 277.005 109.056 272.008C118.586 262.071 121.822 257.28 124.64 248.92C126.319 243.943 126.45 242.742 126.467 232.166C126.488 218.916 125.758 215.423 119.809 200.334C114.353 186.494 112.354 178.65 107.803 153.222C106.003 143.163 105.125 141.193 101.72 139.569C98.4806 138.025 96.1411 138.812 94.86 141.877C93.9638 144.021 93.9289 145.488 94.6019 152.743C95.0296 157.356 95.5505 162.035 95.7603 163.141C95.9695 164.247 95.94 164.961 95.6953 164.729C95.4499 164.496 93.4637 156.245 91.281 146.395C87.2193 128.066 85.7493 123.956 82.4176 121.623C80.5426 120.31 77.9256 120.298 76.0741 121.594C72.7907 123.893 72.6278 128.97 75.2368 147.72C75.9025 152.508 76.3636 156.508 76.2611 156.611C76.1585 156.713 74.8245 151.891 73.2961 145.896C68.973 128.938 66.616 122.158 64.127 119.519C61.4449 116.677 58.728 116.47 56.4133 118.933ZM287.798 119.19C291.338 122.062 289.447 136.206 280.341 174.947L277.094 188.764L270.503 198.31C264.536 206.951 263.466 208.141 259.217 210.876C245.101 219.96 239.44 229.059 239.44 242.663C239.44 248.929 240.469 254.616 241.602 254.616C241.966 254.616 242.08 254.134 241.854 253.545C241.628 252.957 241.113 250.349 240.709 247.751C238.425 233.029 245.996 219.602 261.436 210.994C263.725 209.717 265.667 207.427 270.757 199.999C282.738 182.518 285.113 180.385 293.312 179.74C296.857 179.461 297.689 179.625 299.332 180.927C301.822 182.899 301.416 185.184 297.702 190.102C293.932 195.094 290.653 202.38 289.417 208.515C287.557 217.743 288.349 234.92 291.051 243.956C292.719 249.532 297.695 257.191 303.487 263.097L307.976 267.674L306.545 270.36C301.252 280.295 283.988 297.745 273.174 304.089L269.703 306.125L260.772 296.305C255.86 290.904 246.389 280.701 239.724 273.63C229.254 262.522 227.226 260.013 224.807 255.182C220.583 246.747 219.669 242.504 219.702 231.496C219.735 220.169 220.925 214.722 226.38 200.914C232.114 186.401 233.536 180.795 238.845 151.763C240.103 144.885 240.585 143.464 242.214 141.835C244.758 139.292 248.061 139.478 249.379 142.241C250.338 144.251 249.726 151.96 246.758 175.204C245.287 186.722 245.244 187.445 246.07 186.563C246.397 186.213 247.475 182.006 248.463 177.214C253.888 150.914 259.111 128.72 260.436 126.343C261.24 124.901 262.74 123.098 263.771 122.335C265.5 121.057 265.785 121.028 267.458 121.965C270.788 123.832 271.206 125.783 270.299 135.255C269.448 144.14 265.949 165.944 263.32 178.745C262.465 182.905 262.013 186.461 262.314 186.647C262.616 186.833 263.017 186.295 263.207 185.451C267.963 164.231 277.639 128.052 279.769 123.523C281.168 120.547 283.804 117.906 285.375 117.906C285.837 117.906 286.928 118.484 287.798 119.19ZM62.9874 120.092C65.2653 122.517 66.8567 126.801 70.7722 141.053C75.1932 157.145 81.9068 184.091 81.9068 185.744C81.9068 186.397 82.2426 186.931 82.6529 186.931C83.4996 186.931 83.6249 187.819 80.3409 170.513C76.9334 152.555 75.224 140.972 74.7669 132.728C74.3982 126.093 74.4712 125.488 75.8414 123.77C78.667 120.228 83.088 122.193 85.5502 128.085C86.4022 130.124 89.5287 143.892 98.1146 183.413C98.5349 185.348 99.1328 186.931 99.4426 186.931C100.138 186.931 100.13 186.606 99.3554 183.246C98.5362 179.689 95.3138 150.092 95.3138 146.119C95.3138 140.258 98.7373 138.283 102.69 141.864C104.925 143.888 105.531 146.213 109.108 166.492C111.294 178.881 114.359 189.72 119.038 201.619C124.052 214.37 125.66 221.542 125.736 231.496C125.823 243 123.373 251.974 118.011 259.791C116.803 261.552 109.59 269.627 101.982 277.736C94.3733 285.845 84.4595 296.55 79.9507 301.526C75.4412 306.502 71.3809 310.66 70.9264 310.765C68.9241 311.229 40.4877 282.902 34.4726 274.45L32.721 271.989L36.8135 268.161C45.144 260.37 51.826 250.974 54.3111 243.559C56.0573 238.346 57.3866 224.43 56.8718 216.753C56.1693 206.28 53.2834 198.222 47.3508 190.165C44.0258 185.651 43.5867 183.154 45.7701 181.179C47.8542 179.293 53.8029 179.542 58.5463 181.712C62.732 183.628 64.3737 185.547 74.4303 200.276C79.9018 208.29 81.0219 209.54 84.7565 211.8C93.9235 217.346 99.9963 223.838 102.717 231C104.55 235.826 105.183 244.997 104.073 250.637C103.192 255.119 103.542 256.606 104.756 253.536C105.958 250.499 106.329 239.869 105.377 235.768C103.125 226.064 96.8114 217.942 86.5517 211.549C81.8672 208.63 81.0883 207.786 75.1791 199.222L68.8356 190.029L66.0067 178.261C63.4761 167.734 58.5242 145.102 56.3958 134.335C55.1456 128.013 55.2328 122.502 56.6164 120.39C58.1213 118.094 60.9837 117.961 62.9874 120.092ZM45.3203 132.147C47.3273 133.929 49.4483 139.327 61.4496 173.193C63.4084 178.722 65.2385 183.849 65.5153 184.586C65.8941 185.592 65.4523 185.393 63.7402 183.786C60.3322 180.586 56.1049 178.922 51.3441 178.904L47.261 178.89L46.5189 176.377C41.7909 160.356 37.9363 140.316 38.6583 135.506C39.383 130.673 42.1106 129.297 45.3203 132.147ZM305.89 132.482C307.57 136.765 305.224 152.584 300.27 170.379L298.067 178.288L293.706 178.499C288.977 178.728 284.68 180.47 281.504 183.445C280.49 184.394 279.661 185.018 279.661 184.83C279.661 184.643 282.505 176.519 285.98 166.779C298.553 131.545 298.985 130.639 303.214 130.639C304.723 130.639 305.332 131.059 305.89 132.482ZM323.705 260.7C328.792 264.416 333.32 267.808 333.767 268.239C334.401 268.851 334.179 269.651 332.762 271.868C331.761 273.431 330.613 274.713 330.21 274.716C329.211 274.722 312.508 262.116 312.508 261.356C312.508 260.443 314.051 253.946 314.268 253.946C314.372 253.946 318.618 256.986 323.705 260.7ZM321.261 270.058C325.707 273.415 329.252 276.425 329.138 276.748C328.617 278.229 319.373 289.188 312.768 296.156C302.62 306.86 296.169 312.681 285.908 320.395L277.072 327.037L267.257 318.811L257.443 310.585L261.681 309.746C267.543 308.586 275.631 304.425 282.055 299.267C293.614 289.985 308.153 272.774 310.538 265.549C311.045 264.011 311.616 263.357 312.239 263.595C312.755 263.794 316.815 266.701 321.261 270.058ZM352.062 272.481C359.066 277.148 364.783 281.294 364.768 281.696C364.752 282.098 364.214 283.413 363.571 284.617L362.403 286.808L351.628 279.256C345.703 275.103 339.865 270.939 338.657 270.003L336.461 268.302L337.573 266.15C338.185 264.966 338.831 263.998 339.007 263.998C339.184 263.998 345.059 267.816 352.062 272.481ZM31.0826 271.581C38.5692 283.063 68.6512 313.081 74.6857 315.092C75.647 315.412 57.217 340.115 56.2236 339.838C53.7533 339.152 42.4726 332.976 36.9616 329.292C20.7901 318.486 10.2206 307.501 3.81673 294.844L1.96118 291.176L14.6174 278.955C21.5777 272.233 27.4239 266.741 27.6082 266.75C27.7926 266.758 29.3558 268.932 31.0826 271.581ZM351.623 280.728C357.025 284.48 361.444 287.694 361.444 287.871C361.444 289.653 352.282 303.117 345.767 310.908C334.945 323.852 324.564 333.46 313.81 340.489C306.73 345.115 298.252 349.777 296.918 349.777C295.92 349.777 273.482 332.744 273.091 331.69C272.981 331.391 275.394 329.424 278.454 327.318C298.808 313.312 321.179 291.25 332.847 273.676L335.635 269.476L338.719 271.689C340.415 272.908 346.222 276.974 351.623 280.728ZM2.73813 295.327C10.2568 310.857 30.1234 328.794 50.903 338.814C53.5763 340.104 55.763 341.313 55.763 341.501C55.763 341.69 54.6422 343.252 53.2727 344.973C51.9031 346.693 50.7032 348.22 50.6067 348.365C50.2373 348.921 43.0893 345.543 36.9932 341.932C18.228 330.816 5.40613 318.339 -1.88932 304.096L-4.8134 298.388L-2.20305 295.266C-0.767151 293.549 0.585625 292.144 0.802147 292.144C1.01934 292.144 1.8908 293.576 2.73813 295.327Z" fill="black"/>
</svg>
