<svg width="508" height="483" viewBox="0 0 508 483" fill="none" xmlns="http://www.w3.org/2000/svg">
<path fill-rule="evenodd" clip-rule="evenodd" d="M103.45 1.04843C111.938 6.3422 209.567 71.7609 209.567 72.1541C209.567 72.4409 206.266 73.3222 202.232 74.113C198.198 74.9038 186.221 77.7649 175.617 80.4701C131.723 91.6697 91.2931 105.504 49.0595 123.775C32.5817 130.903 0 146.774 0 147.671C0 148.058 0.134961 148.374 0.299261 148.374C0.463561 148.374 9.04573 144.259 19.3698 139.227C61.5162 118.69 103.597 102.433 148.668 89.274C162.316 85.2892 192.964 77.5007 205.053 74.9448L211.854 73.5067L215.95 76.3041C218.202 77.8437 229.23 85.4628 240.456 93.2361C251.681 101.01 261.279 107.232 261.784 107.064C262.289 106.895 252.161 99.4808 239.277 90.5872C226.394 81.6927 215.534 74.1147 215.144 73.7474C214.264 72.9181 218.841 71.9202 240.163 68.2918C321.225 54.4968 406.913 52.761 485.356 63.325C540.202 70.7118 594.377 85.7496 635.653 105.045C644.302 109.088 647.11 108.967 638.969 104.903C624.516 97.6872 595.108 86.6795 573.401 80.361C536.554 69.6343 500.72 62.9435 454.76 58.2091C439.238 56.6108 406.01 55.3035 380.992 55.3077C325.594 55.3177 276.082 59.7671 227.17 69.1312L212.501 71.9395L204.956 66.8629C184.113 52.8373 119.287 9.67292 112.251 5.13553C107.83 2.28362 103.68 -0.0274262 103.03 0.00024594C102.226 0.033788 102.36 0.367531 103.45 1.04843ZM458.262 147.103C456.961 147.782 455.175 149.194 454.293 150.242C452.348 152.554 448.623 163.798 444.254 180.55C441.149 192.453 439.21 197.711 440.448 190.867C442.047 182.024 443.412 168.972 443.426 162.382C443.441 155.658 443.261 154.824 441.385 152.948C437.019 148.58 430.837 151.151 427.488 158.724C426.606 160.719 423.606 172.67 420.823 185.28C416.142 206.488 414.161 213.909 415.352 205.783C417.129 193.646 418.053 181.624 417.422 178.829C416.219 173.489 411.99 172.014 406.858 175.144C403.674 177.086 402.136 181.283 400.244 193.185C399.515 197.768 398.735 201.817 398.509 202.181C398.285 202.545 395.476 200.934 392.268 198.6C389.06 196.265 385.994 194.504 385.454 194.684C384.914 194.864 387.556 197.185 391.325 199.842C395.093 202.498 398.177 204.971 398.177 205.337C398.177 205.702 397.382 209.921 396.411 214.713C394.072 226.255 389.713 240.522 385.122 251.664C375.224 275.69 373.973 297.663 381.478 315.697C385.064 324.312 389.311 330.044 401.028 342.079C413.076 354.453 432.545 375.685 432.545 376.447C432.545 376.742 430.094 379.012 427.097 381.491C424.1 383.971 421.648 386.283 421.648 386.63C421.648 386.976 427.684 392.281 435.06 398.418C442.437 404.556 448.467 409.767 448.462 409.999C448.457 410.232 447.136 411.274 445.529 412.315C443.92 413.358 442.62 414.49 442.639 414.831C442.697 415.899 473.461 439.351 474.804 439.351C475.505 439.351 477.378 438.731 478.966 437.973L481.855 436.596L509.801 458.646C525.172 470.773 538.386 481.243 539.166 481.912C539.947 482.581 540.998 482.99 541.503 482.822C542.007 482.654 529.223 472.143 513.093 459.466C496.962 446.788 483.746 436.195 483.723 435.925C483.699 435.654 487.019 433.456 491.099 431.039C495.179 428.624 501.687 424.264 505.559 421.353C514.883 414.341 534.358 394.281 543.135 382.645L550.173 373.316L561.564 380.541C567.829 384.514 588.789 397.84 608.141 410.155C639.152 429.888 647.28 434.681 642.9 430.654C642.236 430.043 621.279 416.598 596.33 400.775L550.967 372.007L553.896 367.088C555.507 364.383 557.086 362.008 557.404 361.812C557.722 361.615 565.123 366.17 573.851 371.933C600.67 389.643 642.141 413.607 643.542 412.205C644.238 411.509 645.168 412.072 629.957 403.968C612.435 394.633 598.832 386.431 576.493 371.732L558.236 359.72L559.937 356.383C560.873 354.549 561.637 352.56 561.635 351.966C561.633 351.147 534.886 332.643 527.597 328.416C526.764 327.934 526.073 328.685 525.091 331.141C524.345 333.006 523.427 334.532 523.051 334.532C522.676 334.532 516.472 330.193 509.264 324.889C502.058 319.585 495.955 315.246 495.704 315.246C495.452 315.246 492.408 317.787 488.938 320.894L482.629 326.543L479.737 323.2C475.665 318.493 471.257 311.004 469.33 305.523C465.66 295.076 464.826 270.091 467.764 258.598C468.692 254.967 469.73 251.724 470.07 251.393C470.409 251.061 477.099 254.364 484.937 258.733C528.727 283.145 575.254 302.92 612.773 313.066C624.731 316.3 643.789 320.196 643.789 319.407C643.789 318.523 642.812 318.254 631.634 316.057C598.44 309.535 548.249 290.499 506.313 268.528C496.119 263.188 472.166 250.1 471.253 249.373C470.755 248.974 473.822 243.602 477.513 238.411C482.323 231.645 482.886 228.843 480.012 225.969L477.834 223.79L479.877 216.742C487.482 190.489 490.405 167.681 486.693 163.563C484.563 161.199 481.018 161.317 478.006 163.852C475.358 166.081 473.185 171.293 462.776 200.364C459.555 209.358 456.906 216.267 456.888 215.719C456.87 215.171 458.539 207.058 460.598 197.69C468.974 159.576 469.428 149.714 462.939 146.757C460.549 145.667 461.09 145.628 458.262 147.103ZM174.334 148.82C171.675 151.652 171.23 158.763 173.051 169.338C174.199 176.007 182.803 215.813 184.076 220.343C185.335 224.825 181.792 215.598 174.473 195.333C169.892 182.65 165.554 170.903 164.833 169.229C163.307 165.682 159.028 161.791 156.654 161.791C154.104 161.791 150.907 165.517 150.75 168.671C150.317 177.365 153.516 195.755 158.656 214.121L161.45 224.104L159.522 226.031C156.587 228.967 157.064 231.994 161.432 238.145C166.424 245.174 169.707 251.675 171.387 257.858C174.421 269.016 173.755 294.615 170.163 304.938C168.313 310.255 160.957 321.591 155.367 327.741L151.249 332.271L145.599 331.147L139.949 330.023L135.989 333.829C120.343 348.858 106.009 362.205 105.512 362.205C104.806 362.205 100.905 350.524 100.12 346.062C99.8157 344.333 99.1896 342.918 98.7285 342.918C97.5717 342.918 98.5307 347.543 101.567 356.611L104.088 364.134L100.677 367.544C98.5223 369.701 96.9832 370.656 96.4937 370.144C95.533 369.138 92.2093 358.394 92.2093 356.296C92.2093 355.449 91.7742 354.488 91.2436 354.159C89.8982 353.328 90.9201 359.301 93.3745 366.623L95.3034 372.376L61.6931 404.388C28.8992 435.622 9.6694 453.972 2.97501 460.421C1.15345 462.176 -0.0938858 463.854 0.202022 464.151C0.498769 464.448 5.01954 460.593 10.247 455.585C71.1236 397.268 95.4484 374.35 95.8977 374.891C96.0393 375.062 97.6253 378.03 99.4217 381.489C103.485 389.308 110.782 399.232 117.167 405.619C127.168 415.624 143.429 427.194 157.175 434.085C161.324 436.165 164.829 437.966 164.964 438.086C165.368 438.445 158.532 448.142 145.495 465.705C138.722 474.829 133.399 482.511 133.666 482.778C134.329 483.441 133.925 483.948 149.092 463.402C156.519 453.339 163.723 443.738 165.1 442.067L167.604 439.029L172.103 440.448C177.178 442.048 179.389 442.237 179.389 441.072C179.389 440.634 177.126 439.641 174.359 438.865C171.593 438.088 169.33 437.259 169.33 437.022C169.33 436.474 175.194 427.611 175.556 427.611C175.704 427.611 177.429 428.177 179.389 428.869C183.393 430.283 185.58 430.49 184.901 429.392C184.652 428.987 182.743 428.227 180.661 427.703C178.578 427.178 176.874 426.523 176.874 426.248C176.874 425.972 182.344 418.35 189.029 409.311C201.501 392.448 202.209 391.006 200.384 386.205C199.645 384.259 200.709 382.875 214.425 367.916C222.587 359.014 234.17 346.615 240.163 340.362C252.081 327.929 256.126 321.933 259.651 311.472C261.75 305.244 261.915 303.742 261.936 290.508C261.962 273.929 261.049 269.557 253.61 250.677C246.786 233.359 244.287 223.544 238.597 191.726C236.346 179.139 235.248 176.674 230.99 174.643C226.939 172.71 224.013 173.695 222.411 177.531C221.291 180.213 221.247 182.048 222.089 191.127C222.623 196.899 223.275 202.754 223.537 204.138C223.799 205.521 223.762 206.415 223.456 206.124C223.149 205.832 220.665 195.509 217.936 183.183C212.857 160.248 211.018 155.105 206.852 152.186C204.508 150.544 201.235 150.528 198.92 152.15C194.814 155.027 194.61 161.379 197.873 184.842C198.705 190.833 199.282 195.838 199.154 195.966C199.025 196.094 197.357 190.061 195.446 182.559C190.04 161.339 187.093 152.855 183.98 149.554C180.626 145.997 177.229 145.739 174.334 148.82ZM463.678 149.142C468.105 152.735 465.739 170.434 454.353 218.911L450.292 236.2L442.051 248.144C434.588 258.957 433.251 260.446 427.938 263.869C410.285 275.235 403.206 286.62 403.206 303.643C403.206 311.483 404.493 318.6 405.91 318.6C406.366 318.6 406.507 317.997 406.225 317.26C405.942 316.524 405.298 313.261 404.794 310.01C401.937 291.589 411.404 274.787 430.712 264.015C433.575 262.418 436.003 259.553 442.368 250.258C457.35 228.384 460.32 225.715 470.573 224.908C475.006 224.559 476.046 224.764 478.101 226.394C481.214 228.861 480.706 231.72 476.062 237.874C471.348 244.121 467.248 253.237 465.701 260.914C463.376 272.46 464.366 293.955 467.745 305.261C469.831 312.239 476.053 321.822 483.297 329.213L488.91 334.939L487.121 338.3C480.502 350.732 458.913 372.566 445.39 380.505L441.051 383.053L429.882 370.765C423.739 364.007 411.896 351.24 403.562 342.392C390.47 328.493 387.933 325.354 384.908 319.308C379.627 308.754 378.483 303.445 378.524 289.67C378.566 275.496 380.053 268.681 386.875 251.403C394.046 233.242 395.824 226.228 402.463 189.9C404.036 181.294 404.639 179.515 406.676 177.478C409.857 174.295 413.987 174.529 415.635 177.985C416.835 180.501 416.069 190.147 412.358 219.232C410.518 233.645 410.464 234.549 411.497 233.445C411.907 233.007 413.254 227.743 414.489 221.747C421.273 188.838 427.805 161.067 429.461 158.092C430.467 156.288 432.343 154.032 433.632 153.078C435.795 151.478 436.15 151.442 438.242 152.615C442.407 154.95 442.929 157.392 441.795 169.244C440.731 180.362 436.355 207.645 433.068 223.663C431.999 228.868 431.434 233.318 431.81 233.551C432.188 233.784 432.69 233.111 432.927 232.054C438.874 205.502 450.974 160.23 453.637 154.564C455.387 150.84 458.683 147.536 460.648 147.536C461.226 147.536 462.59 148.258 463.678 149.142ZM182.555 150.271C185.404 153.305 187.394 158.666 192.29 176.499C197.818 196.635 206.214 230.353 206.214 232.42C206.214 233.238 206.634 233.906 207.147 233.906C208.205 233.906 208.362 235.017 204.255 213.362C199.994 190.891 197.857 176.398 197.285 166.082C196.824 157.779 196.915 157.023 198.629 154.873C202.162 150.44 207.691 152.9 210.77 160.272C211.835 162.824 215.745 180.051 226.481 229.504C227.007 231.925 227.754 233.906 228.142 233.906C229.011 233.906 229.002 233.499 228.033 229.294C227.008 224.844 222.979 187.81 222.979 182.839C222.979 175.505 227.26 173.033 232.202 177.514C234.997 180.046 235.755 182.955 240.229 208.331C242.962 223.833 246.794 237.396 252.645 252.285C258.915 268.241 260.926 277.214 261.021 289.67C261.13 304.064 258.066 315.293 251.361 325.075C249.85 327.279 240.831 337.383 231.317 347.53C221.803 357.676 209.406 371.072 203.767 377.298C198.128 383.525 193.051 388.727 192.483 388.859C189.979 389.44 154.42 353.993 146.898 343.418L144.707 340.338L149.825 335.549C160.242 325.8 168.598 314.042 171.705 304.764C173.889 298.241 175.551 280.828 174.908 271.222C174.029 258.118 170.42 248.034 163.002 237.953C158.844 232.304 158.295 229.179 161.025 226.708C163.631 224.348 171.07 224.66 177.002 227.376C182.236 229.773 184.289 232.174 196.864 250.604C203.706 260.633 205.107 262.196 209.777 265.024C221.24 271.964 228.834 280.088 232.236 289.049C234.529 295.088 235.321 306.563 233.932 313.621C232.83 319.229 233.269 321.09 234.787 317.249C236.289 313.448 236.753 300.147 235.563 295.016C232.747 282.873 224.852 272.709 212.022 264.71C206.164 261.058 205.19 260.002 197.801 249.286L189.868 237.783L186.331 223.057C183.166 209.885 176.974 181.566 174.312 168.093C172.749 160.182 172.858 153.286 174.588 150.643C176.47 147.77 180.05 147.604 182.555 150.271ZM160.463 165.355C162.972 167.585 165.625 174.339 180.632 216.716C183.082 223.634 185.37 230.049 185.716 230.971C186.19 232.231 185.637 231.982 183.497 229.971C179.235 225.967 173.949 223.884 167.995 223.862L162.889 223.844L161.961 220.699C156.049 200.653 151.229 175.577 152.132 169.558C153.038 163.51 156.449 161.789 160.463 165.355ZM486.302 165.774C488.403 171.133 485.469 190.927 479.273 213.195L476.519 223.091L471.066 223.355C465.152 223.642 459.778 225.821 455.807 229.543C454.539 230.732 453.502 231.512 453.502 231.277C453.502 231.043 457.058 220.878 461.404 208.689C477.126 164.602 477.667 163.468 482.955 163.468C484.842 163.468 485.604 163.993 486.302 165.774ZM508.579 326.213C514.94 330.862 520.602 335.107 521.161 335.647C521.953 336.412 521.676 337.414 519.904 340.187C518.653 342.143 517.217 343.747 516.712 343.751C515.464 343.759 494.577 327.985 494.577 327.034C494.577 325.891 496.506 317.761 496.778 317.761C496.908 317.761 502.218 321.565 508.579 326.213ZM505.522 337.923C511.083 342.123 515.515 345.89 515.373 346.294C514.722 348.147 503.162 361.86 494.902 370.579C482.212 383.972 474.145 391.256 461.314 400.909L450.265 409.22L437.992 398.927L425.719 388.634L431.018 387.584C438.349 386.132 448.463 380.926 456.496 374.472C470.95 362.857 489.131 341.32 492.114 332.281C492.748 330.356 493.461 329.537 494.241 329.836C494.886 330.084 499.962 333.722 505.522 337.923ZM544.038 340.955C552.796 346.794 559.946 351.982 559.927 352.485C559.907 352.988 559.234 354.633 558.43 356.14L556.969 358.881L543.496 349.432C536.086 344.235 528.787 339.024 527.276 337.854L524.529 335.725L525.921 333.032C526.686 331.551 527.493 330.34 527.714 330.34C527.934 330.34 535.281 335.117 544.038 340.955ZM142.659 339.828C152.02 354.196 189.638 391.757 197.184 394.273C198.386 394.674 175.339 425.584 174.097 425.238C171.008 424.379 156.902 416.651 150.01 412.042C129.788 398.52 116.571 384.774 108.563 368.936L106.243 364.347L122.069 349.055C130.773 340.644 138.083 333.772 138.314 333.783C138.544 333.794 140.499 336.514 142.659 339.828ZM543.49 351.273C550.245 355.969 555.771 359.991 555.771 360.211C555.771 362.441 544.313 379.289 536.167 389.038C522.634 405.235 509.653 417.257 496.205 426.052C487.352 431.84 476.751 437.674 475.082 437.674C473.833 437.674 445.775 416.361 445.287 415.042C445.149 414.668 448.167 412.206 451.993 409.572C477.446 392.046 505.42 364.439 520.01 342.449L523.497 337.194L527.353 339.964C529.474 341.488 536.736 346.576 543.49 351.273ZM107.214 369.542C116.616 388.974 141.459 411.419 167.444 423.957C170.787 425.57 173.521 427.083 173.521 427.319C173.521 427.555 172.12 429.51 170.407 431.663C168.694 433.816 167.194 435.726 167.073 435.907C166.611 436.603 157.673 432.377 150.05 427.858C126.584 413.948 110.551 398.336 101.428 380.514L97.7712 373.371L101.035 369.466C102.831 367.316 104.523 365.559 104.793 365.559C105.065 365.559 106.155 367.351 107.214 369.542Z" fill="black"/>
</svg>
