<svg width="69" height="68" viewBox="0 0 69 68" fill="none" xmlns="http://www.w3.org/2000/svg">
<mask id="mask0_616_3730" style="mask-type:alpha" maskUnits="userSpaceOnUse" x="17" y="12" width="35" height="43">
<path fill-rule="evenodd" clip-rule="evenodd" d="M35.9009 15.821C35.4153 17.7504 34.1952 20.1508 33.1903 21.1558C32.1854 22.1607 29.7849 23.3808 27.8555 23.8664C25.9261 24.352 24.3475 25.013 24.3475 25.3339C24.3475 25.6549 25.9261 26.3159 27.8555 26.8015C32.3048 27.9213 34.7811 30.3976 35.9009 34.8469C36.3865 36.7763 37.0475 38.3549 37.3685 38.3549C37.6894 38.3549 38.3504 36.7763 38.836 34.8469C39.3216 32.9175 40.5418 30.5171 41.5467 29.5121C42.5516 28.5072 44.952 27.2871 46.8814 26.8015C48.8108 26.3159 50.3894 25.6549 50.3894 25.3339C50.3894 25.013 48.8108 24.352 46.8814 23.8664C42.4321 22.7466 39.9558 20.2703 38.836 15.821C38.3504 13.8916 37.6894 12.313 37.3685 12.313C37.0475 12.313 36.3865 13.8916 35.9009 15.821ZM28.1772 16.8152C28.1772 17.794 30.4291 19.5075 30.9859 18.9514C31.542 18.3945 29.8286 16.1427 28.8497 16.1427C28.4797 16.1427 28.1772 16.4452 28.1772 16.8152ZM44.2466 17.31C43.7135 17.9518 43.4906 18.691 43.751 18.9514C44.3079 19.5075 46.5597 17.794 46.5597 16.8152C46.5597 15.7597 45.3113 16.027 44.2466 17.31ZM38.9463 20.1348C39.6042 21.469 41.2334 23.0982 42.5677 23.7561C43.9012 24.4133 44.9934 25.1233 44.9934 25.3339C44.9934 25.5446 43.9012 26.2546 42.5677 26.9118C41.2334 27.5697 39.6042 29.1989 38.9463 30.5331C38.2891 31.8666 37.5791 32.9589 37.3685 32.9589C37.1578 32.9589 36.4478 31.8666 35.7906 30.5331C35.1327 29.1989 33.5035 27.5697 32.1693 26.9118C30.8358 26.2546 29.7435 25.5446 29.7435 25.3339C29.7435 25.1233 30.8358 24.4133 32.1693 23.7561C33.5035 23.0982 35.1327 21.469 35.7906 20.1348C36.4478 18.8013 37.1578 17.709 37.3685 17.709C37.5791 17.709 38.2891 18.8013 38.9463 20.1348ZM25.8602 31.8942C25.4497 32.975 25.1134 34.1277 25.1134 34.4563C25.1134 34.7849 24.4371 35.6657 23.6107 36.414C22.7835 37.1623 21.7073 39.0251 21.2179 40.5539C20.7292 42.0827 19.6515 44.078 18.8228 44.9879C17.3675 46.5864 17.3614 46.7366 18.6551 49.4618C19.4662 51.1721 20.9973 52.7607 22.5468 53.4998C24.9672 54.6533 25.1931 54.6342 26.8307 53.1368C30.7791 49.5261 33.3802 48.8368 41.2502 49.3163C49.3646 49.8111 50.3894 49.4235 50.3894 45.8611C50.3894 44.6816 50.7571 43.7165 51.2059 43.7165C51.6555 43.7165 51.9136 42.769 51.7804 41.6101C51.5514 39.6149 51.3055 39.4916 47.1127 39.2733C44.6794 39.1469 40.6015 39.5773 38.0517 40.2307C30.472 42.1723 30.2391 42.0866 30.861 37.5683C31.2647 34.6301 31.0962 33.2698 30.1487 31.8237C28.5487 29.3819 26.8046 29.4103 25.8602 31.8942ZM29.3904 36.8835C28.541 43.2868 29.667 43.9394 37.8748 41.8016C43.643 40.2996 50.3894 40.2575 50.3894 41.725C50.3894 42.4389 48.4072 43.2332 44.4534 44.104C37.9184 45.5425 27.5652 49.9428 26.0839 51.9105C24.794 53.6239 21.7655 52.2314 20.1999 49.2044C19.1361 47.1464 19.1575 46.8622 20.4703 45.6742C21.2554 44.9634 22.1094 43.2539 22.3683 41.8744C22.6272 40.4942 23.6957 38.5609 24.742 37.5782C25.789 36.5948 26.6453 35.0461 26.6453 34.1361C26.6453 31.9172 27.4182 31.2792 28.7585 32.3921C29.5735 33.0684 29.7397 34.2502 29.3904 36.8835ZM43.496 32.134C43.496 33.1128 45.7478 34.8262 46.3047 34.2702C46.8607 33.7133 45.1473 31.4615 44.1685 31.4615C43.7985 31.4615 43.496 31.764 43.496 32.134ZM48.8575 46.3521C48.8575 48.1007 47.7377 48.3749 42.9736 47.7951L38.5174 47.2528L41.5811 46.3092C45.8826 44.9849 48.8575 45.0025 48.8575 46.3521Z" fill="#0A0C0E"/>
</mask>
<g mask="url(#mask0_616_3730)">
<rect x="14.9746" y="10.5796" width="42.6355" height="49.7415" fill="#0A0C0E"/>
</g>
</svg>
