<svg width="49" height="49" viewBox="0 0 49 49" fill="none" xmlns="http://www.w3.org/2000/svg">
<path d="M3.98 7.30364C2.95683 7.95208 2.11433 8.84881 1.53089 9.91038C0.947445 10.972 0.642033 12.1639 0.643069 13.3752V36.6252C0.643069 43.0466 5.84664 48.2502 12.2681 48.2502H35.5181C36.7302 48.2509 37.9229 47.9452 38.9851 47.3614C40.0474 46.7776 40.9449 45.9347 41.5941 44.9111L41.3239 44.9244L41.0538 44.9288H12.2681C10.0658 44.9288 7.95378 44.0539 6.39656 42.4967C4.83934 40.9395 3.9645 38.8275 3.9645 36.6252V7.8395C3.9645 7.66014 3.96893 7.48078 3.98 7.30364ZM13.3752 0.643066C11.4666 0.643066 9.63616 1.40126 8.28657 2.75085C6.93698 4.10044 6.17878 5.93088 6.17878 7.8395V35.5181C6.17878 36.4631 6.36492 37.3989 6.72658 38.272C7.08823 39.1451 7.61832 39.9385 8.28657 40.6067C8.95482 41.275 9.74815 41.805 10.6213 42.1667C11.4944 42.5284 12.4302 42.7145 13.3752 42.7145H41.0538C41.9988 42.7145 42.9346 42.5284 43.8077 42.1667C44.6808 41.805 45.4742 41.275 46.1424 40.6067C46.8107 39.9385 47.3408 39.1451 47.7024 38.272C48.0641 37.3989 48.2502 36.4631 48.2502 35.5181V7.8395C48.2502 5.93088 47.492 4.10044 46.1424 2.75085C44.7928 1.40126 42.9624 0.643066 41.0538 0.643066H13.3752ZM12.0865 39.1739L26.052 25.494C26.3327 25.2195 26.7015 25.0533 27.0931 25.0249C27.4847 24.9966 27.8737 25.1078 28.191 25.339L28.377 25.494L42.3403 39.1739C41.9269 39.3192 41.4919 39.3933 41.0538 39.3931H13.3752C12.9235 39.3931 12.4895 39.3156 12.0865 39.1739ZM13.3752 3.9645H41.0538C43.1928 3.9645 44.9288 5.7005 44.9288 7.8395V35.5181C44.9288 35.9786 44.8491 36.4215 44.7007 36.8311L30.702 23.1225C29.8184 22.2569 28.6444 21.7509 27.4084 21.7031C26.1724 21.6552 24.9628 22.0688 24.0149 22.8634L23.727 23.1225L9.72828 36.8334C9.57661 36.4115 9.49944 35.9664 9.50021 35.5181V7.8395C9.50021 5.7005 11.2362 3.9645 13.3752 3.9645ZM19.4645 11.1631C19.0946 11.1527 18.7263 11.2165 18.3815 11.3508C18.0367 11.4852 17.7223 11.6873 17.4569 11.9452C17.1916 12.2032 16.9806 12.5117 16.8366 12.8526C16.6926 13.1935 16.6184 13.5598 16.6184 13.9299C16.6184 14.3 16.6926 14.6663 16.8366 15.0072C16.9806 15.348 17.1916 15.6566 17.4569 15.9145C17.7223 16.1725 18.0367 16.3746 18.3815 16.5089C18.7263 16.6433 19.0946 16.7071 19.4645 16.6966C20.1847 16.6763 20.8686 16.3758 21.3709 15.8592C21.8731 15.3425 22.1541 14.6504 22.1541 13.9299C22.1541 13.2094 21.8731 12.5172 21.3709 12.0006C20.8686 11.4839 20.1847 11.1835 19.4645 11.1631Z" fill="#939393"/>
</svg>
