<svg width="24" height="24" viewBox="0 0 24 24" fill="none" xmlns="http://www.w3.org/2000/svg">
<path d="M3 16.75H2.5V17.25V21.25H2V16.75C2 16.4739 2.22386 16.25 2.5 16.25H5.08967C5.25155 16.4229 5.41969 16.5897 5.59374 16.75H3ZM5 9.75C5 5.89064 8.14064 2.75 12 2.75C15.8594 2.75 19 5.89064 19 9.75C19 13.6094 15.8594 16.75 12 16.75C8.14064 16.75 5 13.6094 5 9.75ZM18.5 9.75C18.5 6.16561 15.5844 3.25 12 3.25C8.41561 3.25 5.5 6.16561 5.5 9.75C5.5 13.3344 8.41561 16.25 12 16.25C15.5844 16.25 18.5 13.3344 18.5 9.75ZM22 16.75V21.25H21.5V18.25C21.5 17.4216 20.8284 16.75 20 16.75H18.4063C18.5803 16.5897 18.7485 16.4229 18.9103 16.25H21.5C21.7761 16.25 22 16.4739 22 16.75ZM19 19.75H5V19.25H19V19.75Z" fill="black" stroke="#484848"/>
<path d="M9.56739 12V10.4433H9V9.97689H9.56739V9.52311H9V9.05672H9.56739V7.5H11.1033L11.8663 9.05672H12.7565V7.5H13.8424V9.05672H14.4V9.52311H13.8424V9.97689H14.4V10.4433H13.8424V12H12.2967L11.5141 10.4433H10.6533V12H9.56739ZM10.6533 9.97689H11.2989L11.0837 9.52311H10.6337L10.6533 9.97689ZM12.7859 11.0168H12.8348L12.7957 10.4433H12.5315L12.7859 11.0168ZM10.6141 9.05672H10.888L10.6043 8.45168H10.5652L10.6141 9.05672ZM12.3261 9.97689H12.7761L12.7565 9.52311H12.1011L12.3261 9.97689Z" fill="black"/>
</svg>
