<svg width="8" height="11" viewBox="0 0 8 11" fill="none" xmlns="http://www.w3.org/2000/svg">
<path d="M1.31054 7.64103C1.42947 7.60635 1.5573 7.62032 1.66593 7.67989C1.77455 7.73946 1.85506 7.83973 1.88974 7.95866C1.92443 8.07758 1.91045 8.20542 1.85089 8.31404C1.79132 8.42266 1.69104 8.50317 1.57212 8.53786C1.33857 8.60605 1.17041 8.67799 1.06251 8.74338C1.17368 8.81018 1.34931 8.88491 1.59314 8.95451C2.13263 9.10865 2.90474 9.21048 3.77681 9.21048C4.64888 9.21048 5.42099 9.10865 5.96049 8.95451C6.20478 8.88491 6.37995 8.81018 6.49111 8.74338C6.38368 8.67799 6.21553 8.60605 5.98198 8.53786C5.86492 8.50164 5.76679 8.42089 5.70872 8.31299C5.65065 8.20509 5.63731 8.0787 5.67156 7.96106C5.70581 7.84341 5.78492 7.74394 5.89183 7.68407C5.99873 7.62421 6.12489 7.60875 6.24309 7.64103C6.55511 7.73212 6.84097 7.84889 7.06051 7.99883C7.26369 8.13849 7.51359 8.38185 7.51359 8.74338C7.51359 9.10912 7.25762 9.35434 7.05116 9.49401C6.82789 9.64441 6.53596 9.76165 6.21693 9.85274C5.57327 10.0372 4.71101 10.1447 3.77681 10.1447C2.84262 10.1447 1.98036 10.0372 1.3367 9.85274C1.01767 9.76165 0.725737 9.64441 0.502465 9.49401C0.296008 9.35388 0.0400391 9.10912 0.0400391 8.74338C0.0400391 8.38185 0.289936 8.13849 0.493123 7.99883C0.712658 7.84889 0.998522 7.73212 1.31054 7.64103ZM3.77681 0.802734C4.70593 0.802734 5.59699 1.17182 6.25397 1.82881C6.91095 2.48579 7.28004 3.37685 7.28004 4.30596C7.28004 5.50547 6.6261 6.48076 5.94881 7.17394C5.67958 7.44668 5.39026 7.69885 5.08328 7.9283C4.80583 8.13662 4.17151 8.52712 4.17151 8.52712C4.0512 8.5955 3.9152 8.63145 3.77681 8.63145C3.63843 8.63145 3.50242 8.5955 3.38212 8.52712C3.06718 8.3448 2.76278 8.14487 2.47034 7.9283C2.16325 7.699 1.87391 7.44683 1.60481 7.17394C0.927523 6.48076 0.273588 5.50547 0.273588 4.30596C0.273588 3.37685 0.642676 2.48579 1.29966 1.82881C1.95664 1.17182 2.8477 0.802734 3.77681 0.802734ZM3.77681 1.73693C3.09546 1.73693 2.44202 2.00759 1.96023 2.48938C1.47845 2.97117 1.20778 3.62461 1.20778 4.30596C1.20778 5.15421 1.67301 5.90717 2.27276 6.52C2.72398 6.98149 3.22097 7.33275 3.56522 7.54855L3.77681 7.67653L3.98841 7.54855C4.33219 7.33275 4.82965 6.98149 5.28087 6.52047C5.88062 5.90717 6.34585 5.15421 6.34585 4.30596C6.34585 3.62461 6.07518 2.97117 5.59339 2.48938C5.11161 2.00759 4.45816 1.73693 3.77681 1.73693ZM3.77681 2.90467C3.96083 2.90467 4.14305 2.94092 4.31306 3.01134C4.48308 3.08176 4.63755 3.18498 4.76768 3.3151C4.8978 3.44522 5.00102 3.5997 5.07144 3.76971C5.14186 3.93972 5.1781 4.12194 5.1781 4.30596C5.1781 4.48998 5.14186 4.6722 5.07144 4.84221C5.00102 5.01222 4.8978 5.1667 4.76768 5.29682C4.63755 5.42695 4.48308 5.53016 4.31306 5.60058C4.14305 5.67101 3.96083 5.70725 3.77681 5.70725C3.40517 5.70725 3.04874 5.55962 2.78595 5.29682C2.52316 5.03403 2.37552 4.67761 2.37552 4.30596C2.37552 3.93432 2.52316 3.57789 2.78595 3.3151C3.04874 3.05231 3.40517 2.90467 3.77681 2.90467ZM3.77681 3.83886C3.65293 3.83886 3.53412 3.88808 3.44653 3.97567C3.35893 4.06327 3.30972 4.18208 3.30972 4.30596C3.30972 4.42984 3.35893 4.54865 3.44653 4.63625C3.53412 4.72385 3.65293 4.77306 3.77681 4.77306C3.9007 4.77306 4.0195 4.72385 4.1071 4.63625C4.1947 4.54865 4.24391 4.42984 4.24391 4.30596C4.24391 4.18208 4.1947 4.06327 4.1071 3.97567C4.0195 3.88808 3.9007 3.83886 3.77681 3.83886Z" fill="black"/>
</svg>
