<svg width="11" height="12" viewBox="0 0 11 12" fill="none" xmlns="http://www.w3.org/2000/svg">
<path d="M3.08065 8.15531C3.19735 8.12128 3.32278 8.13499 3.42937 8.19344C3.53595 8.25189 3.61495 8.35028 3.64898 8.46698C3.68302 8.58367 3.66931 8.70911 3.61086 8.81569C3.55241 8.92228 3.45401 9.00128 3.33732 9.03531C3.10815 9.10223 2.94315 9.17281 2.83728 9.23698C2.94636 9.30252 3.11869 9.37585 3.35794 9.44415C3.88732 9.5954 4.64494 9.69531 5.50065 9.69531C6.35636 9.69531 7.11398 9.5954 7.64336 9.44415C7.88307 9.37585 8.05494 9.30252 8.16403 9.23698C8.05861 9.17281 7.89361 9.10223 7.66444 9.03531C7.54958 8.99978 7.45329 8.92053 7.39631 8.81466C7.33933 8.70879 7.32624 8.58477 7.35985 8.46933C7.39346 8.3539 7.47108 8.25629 7.57598 8.19755C7.68088 8.13881 7.80467 8.12364 7.92065 8.15531C8.22682 8.24469 8.50732 8.35927 8.72273 8.5064C8.92211 8.64344 9.16732 8.88223 9.16732 9.23698C9.16732 9.59585 8.91615 9.83648 8.71357 9.97352C8.49448 10.1211 8.20803 10.2361 7.89498 10.3255C7.2634 10.5066 6.41732 10.612 5.50065 10.612C4.58398 10.612 3.7379 10.5066 3.10632 10.3255C2.79328 10.2361 2.50682 10.1211 2.28773 9.97352C2.08515 9.83602 1.83398 9.59585 1.83398 9.23698C1.83398 8.88223 2.07919 8.64344 2.27857 8.5064C2.49398 8.35927 2.77448 8.24469 3.08065 8.15531ZM5.50065 1.44531C6.41233 1.44531 7.28667 1.80748 7.93133 2.45213C8.57599 3.09679 8.93815 3.97113 8.93815 4.88281C8.93815 6.05981 8.29648 7.01681 7.6319 7.69698C7.36772 7.96461 7.08382 8.21204 6.78261 8.43719C6.51036 8.6416 5.88794 9.02477 5.88794 9.02477C5.76989 9.09187 5.63644 9.12715 5.50065 9.12715C5.36487 9.12715 5.23141 9.09187 5.11336 9.02477C4.80434 8.84587 4.50564 8.6497 4.21869 8.43719C3.91736 8.21219 3.63345 7.96475 3.3694 7.69698C2.70482 7.01681 2.06315 6.05981 2.06315 4.88281C2.06315 3.97113 2.42532 3.09679 3.06997 2.45213C3.71463 1.80748 4.58897 1.44531 5.50065 1.44531ZM5.50065 2.36198C4.83208 2.36198 4.1909 2.62757 3.71815 3.10031C3.2454 3.57306 2.97982 4.21425 2.97982 4.88281C2.97982 5.71515 3.43632 6.45398 4.02482 7.05531C4.46757 7.50815 4.95523 7.85281 5.29303 8.06456L5.50065 8.19015L5.70828 8.06456C6.04561 7.85281 6.53373 7.50815 6.97648 7.05577C7.56498 6.45398 8.02148 5.71515 8.02148 4.88281C8.02148 4.21425 7.7559 3.57306 7.28315 3.10031C6.8104 2.62757 6.16922 2.36198 5.50065 2.36198ZM5.50065 3.50781C5.68122 3.50781 5.86002 3.54338 6.02684 3.61248C6.19366 3.68158 6.34524 3.78286 6.47292 3.91054C6.6006 4.03822 6.70189 4.1898 6.77099 4.35662C6.84009 4.52345 6.87565 4.70224 6.87565 4.88281C6.87565 5.06338 6.84009 5.24218 6.77099 5.409C6.70189 5.57583 6.6006 5.7274 6.47292 5.85508C6.34524 5.98277 6.19366 6.08405 6.02684 6.15315C5.86002 6.22225 5.68122 6.25781 5.50065 6.25781C5.13598 6.25781 4.78624 6.11295 4.52838 5.85508C4.27052 5.59722 4.12565 5.24749 4.12565 4.88281C4.12565 4.51814 4.27052 4.1684 4.52838 3.91054C4.78624 3.65268 5.13598 3.50781 5.50065 3.50781ZM5.50065 4.42448C5.37909 4.42448 5.26251 4.47277 5.17656 4.55872C5.09061 4.64468 5.04232 4.76126 5.04232 4.88281C5.04232 5.00437 5.09061 5.12095 5.17656 5.2069C5.26251 5.29286 5.37909 5.34115 5.50065 5.34115C5.62221 5.34115 5.73879 5.29286 5.82474 5.2069C5.9107 5.12095 5.95898 5.00437 5.95898 4.88281C5.95898 4.76126 5.9107 4.64468 5.82474 4.55872C5.73879 4.47277 5.62221 4.42448 5.50065 4.42448Z" fill="black"/>
</svg>
