<svg width="287" height="78" viewBox="0 0 287 78" fill="none" xmlns="http://www.w3.org/2000/svg">
<path d="M114.679 39.1175C113.87 40.5676 112.656 41.7141 111.004 42.5909C109.351 43.4677 107.328 43.9061 104.866 43.9061H101.258C100.752 43.9061 100.381 44.3107 100.381 44.7828V53.7192C100.381 54.225 99.9764 54.5959 99.5043 54.5959H94.0076C93.5018 54.5959 93.1309 54.1913 93.1309 53.7192V25.6287C93.1309 25.1229 93.5355 24.752 94.0076 24.752H104.9C107.294 24.752 109.284 25.1566 110.936 25.9997C112.588 26.809 113.802 27.9555 114.646 29.4056C115.455 30.8556 115.893 32.508 115.893 34.3965C115.86 36.0826 115.455 37.6675 114.679 39.1175ZM107.429 37.1279C108.103 36.4872 108.441 35.543 108.441 34.3627C108.441 33.1824 108.103 32.2382 107.429 31.5975C106.755 30.9568 105.709 30.6196 104.327 30.6196H101.258C100.752 30.6196 100.381 31.0243 100.381 31.4964V37.1954C100.381 37.7012 100.786 38.0721 101.258 38.0721H104.327C105.709 38.1059 106.755 37.7686 107.429 37.1279Z" fill="white"/>
<path d="M143.106 31.7659V53.7527C143.106 54.2585 142.701 54.6295 142.229 54.6295H136.732C136.227 54.6295 135.856 54.2248 135.856 53.7527V53.6515C135.856 52.8759 134.979 52.505 134.372 52.9771C133.9 53.348 133.394 53.6853 132.854 53.955C131.607 54.5958 130.19 54.8993 128.673 54.8993C126.852 54.8993 125.267 54.4946 123.851 53.6853C122.468 52.8759 121.389 51.6957 120.613 50.1782C119.838 48.6607 119.467 46.8397 119.467 44.7827V31.7997C119.467 31.2938 119.871 30.9229 120.344 30.9229H125.807C126.312 30.9229 126.683 31.3276 126.683 31.7997V43.771C126.683 45.3559 127.088 46.6036 127.931 47.4804C128.74 48.3572 129.853 48.7956 131.236 48.7956C132.652 48.7956 133.765 48.3572 134.608 47.4804C135.417 46.6036 135.856 45.3559 135.856 43.771V31.7659C135.856 31.2601 136.26 30.8892 136.732 30.8892H142.229C142.701 30.8555 143.106 31.2601 143.106 31.7659Z" fill="white"/>
<path d="M161.585 49.3354V53.7193C161.585 54.2251 161.181 54.5961 160.709 54.5961H157.91C155.279 54.5961 153.222 53.9554 151.739 52.6739C150.255 51.3925 149.513 49.268 149.513 46.3679V37.8025C149.513 37.2967 149.108 36.9257 148.636 36.9257H147.523C147.017 36.9257 146.646 36.5211 146.646 36.0489V31.8C146.646 31.2942 147.051 30.9232 147.523 30.9232H148.636C149.142 30.9232 149.513 30.5185 149.513 30.0464V26.0335C149.513 25.5277 149.918 25.1567 150.39 25.1567H155.886C156.392 25.1567 156.763 25.5614 156.763 26.0335V30.0464C156.763 30.5523 157.168 30.9232 157.64 30.9232H160.607C161.113 30.9232 161.484 31.3279 161.484 31.8V36.0152C161.484 36.5211 161.08 36.892 160.607 36.892H157.674C157.168 36.892 156.797 37.2967 156.797 37.7688V46.4691C156.797 47.1772 156.965 47.6831 157.303 47.9866C157.64 48.2901 158.213 48.4587 159.022 48.4587H160.742C161.181 48.4587 161.585 48.8633 161.585 49.3354Z" fill="white"/>
<path d="M200.537 25.6287V53.7192C200.537 54.225 200.132 54.5959 199.66 54.5959H194.163C193.657 54.5959 193.286 54.1913 193.286 53.7192V43.1979C193.286 42.6921 192.882 42.3211 192.41 42.3211H182.866C182.36 42.3211 181.99 42.7258 181.99 43.1979V53.7192C181.99 54.225 181.585 54.5959 181.113 54.5959H175.549C175.043 54.5959 174.672 54.1913 174.672 53.7192V25.6287C174.672 25.1229 175.077 24.752 175.549 24.752H181.045C181.551 24.752 181.922 25.1566 181.922 25.6287V35.543C181.922 36.0488 182.327 36.4198 182.799 36.4198H192.342C192.848 36.4198 193.219 36.0151 193.219 35.543V25.6287C193.219 25.1229 193.624 24.752 194.096 24.752H199.592C200.132 24.752 200.537 25.1566 200.537 25.6287Z" fill="white"/>
<path d="M205.729 36.285C206.639 34.4303 207.921 33.014 209.506 32.036C211.091 31.0581 212.878 30.5522 214.834 30.5522C216.52 30.5522 217.97 30.8895 219.251 31.5639C219.791 31.8674 220.263 32.1709 220.701 32.5419C221.275 33.014 222.151 32.6093 222.151 31.8674V31.7662C222.151 31.2604 222.556 30.8895 223.028 30.8895H228.525C229.031 30.8895 229.402 31.2941 229.402 31.7662V53.753C229.402 54.2588 228.997 54.6298 228.525 54.6298H223.028C222.522 54.6298 222.151 54.2251 222.151 53.753V53.6518C222.151 52.9099 221.275 52.4716 220.701 52.9437C220.263 53.3146 219.757 53.6518 219.184 53.9553C217.936 54.6298 216.452 54.967 214.766 54.967C212.844 54.967 211.091 54.4612 209.472 53.4495C207.887 52.4378 206.639 51.0215 205.695 49.1331C204.785 47.2784 204.312 45.1202 204.312 42.6922C204.312 40.2642 204.785 38.1397 205.729 36.285ZM220.6 38.4432C219.589 37.3978 218.341 36.8583 216.891 36.8583C215.913 36.8583 214.901 37.1618 214.092 37.7013C212.507 38.7467 211.731 40.4328 211.731 42.6922C211.731 44.5132 212.237 45.9632 213.249 47.0086C214.26 48.0877 215.474 48.5935 216.925 48.5935C218.375 48.5935 219.589 48.054 220.6 47.0086C221.612 45.9632 222.118 44.5132 222.118 42.6922C222.118 40.9386 221.612 39.4886 220.6 38.4432Z" fill="white"/>
<path d="M255.839 33.3174C257.491 35.1047 258.334 37.6001 258.334 40.7363V53.7192C258.334 54.2251 257.93 54.596 257.458 54.596H251.995C251.489 54.596 251.118 54.1914 251.118 53.7192V41.7142C251.118 40.1293 250.713 38.8816 249.87 38.0048C249.061 37.128 247.948 36.6896 246.565 36.6896C245.183 36.6896 244.07 37.128 243.261 38.0048C242.451 38.8816 242.013 40.1293 242.013 41.7142V53.7192C242.013 54.2251 241.608 54.596 241.136 54.596H235.572C235.066 54.596 234.695 54.1914 234.695 53.7192V31.7325C234.695 31.2267 235.1 30.8557 235.572 30.8557H241.069C241.575 30.8557 241.946 31.2604 241.946 31.7325V31.7662C241.946 32.5081 242.822 32.9128 243.396 32.4406C243.834 32.0697 244.34 31.7662 244.913 31.4964C246.161 30.8894 247.577 30.5859 249.128 30.5859C251.927 30.6197 254.153 31.5302 255.839 33.3174Z" fill="white"/>
<path d="M263.326 36.2849C264.236 34.4301 265.518 33.0138 267.103 32.0359C268.688 31.058 270.475 30.5521 272.431 30.5521C273.982 30.5521 275.432 30.8893 276.714 31.5301C277.287 31.8336 277.826 32.1708 278.265 32.5417C278.872 33.0138 279.749 32.6429 279.749 31.8673V24.0438C279.749 23.5379 280.153 23.167 280.625 23.167H286.122C286.628 23.167 286.999 23.5717 286.999 24.0438V53.7529C286.999 54.2587 286.594 54.6296 286.122 54.6296H280.625C280.12 54.6296 279.749 54.225 279.749 53.7529V53.6517C279.749 52.8761 278.838 52.4714 278.265 52.9773C277.826 53.3482 277.354 53.6517 276.849 53.9552C275.601 54.6296 274.117 54.9669 272.431 54.9669C270.475 54.9669 268.688 54.461 267.103 53.4494C265.518 52.4377 264.27 51.0214 263.326 49.133C262.416 47.2782 261.943 45.12 261.943 42.692C261.943 40.2641 262.382 38.1396 263.326 36.2849ZM278.231 38.4431C277.219 37.3977 275.972 36.8581 274.522 36.8581C273.544 36.8581 272.532 37.1616 271.723 37.7012C270.138 38.7466 269.362 40.4327 269.362 42.692C269.362 44.513 269.868 45.9631 270.88 47.0085C271.891 48.0876 273.105 48.5934 274.555 48.5934C276.005 48.5934 277.219 48.0538 278.231 47.0085C279.243 45.9631 279.749 44.513 279.749 42.692C279.715 40.9385 279.209 39.4885 278.231 38.4431Z" fill="white"/>
<path d="M77.2493 29.0684L72.0224 25.0217C60.793 15.7482 50.0019 0 50.0019 0C49.6984 3.87803 49.4624 7.58745 49.5298 9.54333C50.6426 10.9597 53.2055 15.9842 53.9137 19.6599C54.5881 23.3356 54.8242 28.9335 55.33 31.5638C55.5661 32.7778 55.937 33.9918 56.4091 35.2058C56.9149 36.5884 57.5557 37.9373 58.2638 39.185C59.3429 41.1409 61.5349 45.2549 60.8267 47.2445C60.6918 47.6492 60.4558 47.9527 60.0511 48.1213C57.6906 49.2679 55.8696 44.6817 55.2626 43.7375C54.6556 42.7933 52.1601 38.2071 51.081 36.3186C50.238 36.757 49.631 37.3303 49.631 37.3303C49.631 37.3303 50.9461 41.0397 51.1485 42.3886C51.3171 43.7375 51.8229 49.0318 52.1264 51.8645C52.3287 53.8878 52.1601 55.7425 51.4183 56.6867C51.1485 57.0577 50.7438 57.2937 50.3054 57.3274C48.653 57.4961 47.7088 56.4169 47.6077 54.832C47.5065 53.2471 46.8658 46.2329 46.3937 44.4793C45.9216 42.7258 44.9436 39.4548 44.9436 39.4548L44.2355 39.5559C45.3146 41.849 45.382 51.1563 45.3483 55.203C45.3483 58.2717 44.8087 60.4636 43.7296 61.2729C43.3924 61.509 43.0215 61.6439 42.5831 61.6101C40.7284 61.5427 39.9528 58.2717 39.9865 57.1925C40.0202 56.1134 40.0539 50.5493 39.7504 48.4923C39.4469 46.4689 39.0085 40.5001 39.0085 40.5001C39.0085 40.5001 38.0643 40.6013 37.255 40.4327C37.1538 40.9722 36.2433 48.9644 36.0073 51.3249C35.805 53.2808 35.434 57.6647 34.0851 58.7775C33.8154 59.0135 33.4781 59.081 33.1072 58.9798C30.8815 58.4065 30.949 55.0681 31.0501 50.1784C31.185 45.3224 31.4211 40.5001 32.0281 37.1279C32.0618 34.2278 31.3199 29.844 27.5768 27.1799C26.464 27.0788 25.9581 27.5509 25.9581 27.5509C24.9802 29.6417 23.9011 31.1929 22.7545 32.3394C20.6638 34.4302 18.4044 35.1046 16.3811 35.0372C16.3473 35.0372 16.3136 35.0372 16.2799 35.0372C13.2449 34.9023 14.0543 33.115 15.0996 32.3057C16.145 31.4626 17.6625 29.8103 18.7753 28.1579C19.8882 26.5055 20.6975 23.7066 22.2487 20.4018C23.7662 17.0633 24.7104 15.2761 31.8258 10.184C31.8258 10.184 31.9944 5.76646 31.9606 0.640716L18.7753 15.7145C17.4939 17.1645 16.1113 18.5134 14.6613 19.7611C14.6613 19.7611 1.91432 30.7208 1.37477 31.5975C-0.850887 35.307 -0.378783 40.1967 2.82481 43.4002L34.5572 75.1327C38.3341 78.9095 44.4378 78.9095 48.1809 75.1327L78.9017 43.67C79.8459 42.7258 80.5541 41.6467 81.0262 40.4664C82.7123 36.3861 81.0599 31.5638 77.2493 29.0684Z" fill="white"/>
</svg>
