<svg width="45" height="43" viewBox="0 0 45 43" fill="none" xmlns="http://www.w3.org/2000/svg">
<rect y="0.5" width="45" height="42" rx="10" fill="#C8C8C8" fill-opacity="0.35"/>
<path fill-rule="evenodd" clip-rule="evenodd" d="M13.6746 13.1328C12.705 13.3877 12.0948 14.4618 12.3396 15.4826C12.4143 15.7943 12.5546 16.0727 12.7457 16.2887C12.9163 16.4816 21.0181 22.3652 21.3145 22.5115C21.7665 22.7346 22.3051 22.7265 22.7664 22.4895C23.1283 22.3036 31.0652 16.5343 31.2668 16.3106C32.2141 15.2593 31.6971 13.4772 30.3443 13.1309C29.9883 13.0398 14.0216 13.0416 13.6746 13.1328ZM12.2812 22.3362C12.2812 25.682 12.294 27.2172 12.3232 27.3693C12.4625 28.0975 13.0053 28.6914 13.6921 28.8673C14.0504 28.959 29.9221 28.9618 30.3201 28.8702C31.0123 28.7109 31.5718 28.1081 31.7132 27.3693C31.7615 27.1173 31.7745 17.5127 31.7266 17.5358C31.7109 17.5434 29.8716 18.8736 27.6392 20.4918C25.4068 22.11 23.4579 23.5009 23.3083 23.5827C22.8879 23.8127 22.5314 23.9005 22.0182 23.9005C21.5049 23.9005 21.1485 23.8127 20.728 23.5827C20.5785 23.5009 18.6296 22.11 16.3972 20.4918C14.1648 18.8736 12.3255 17.5434 12.3098 17.5358C12.2941 17.5282 12.2812 19.6884 12.2812 22.3362Z" fill="black"/>
</svg>
