<svg width="188" height="188" viewBox="0 0 188 188" fill="none" xmlns="http://www.w3.org/2000/svg">
<rect x="0.662109" y="0.863281" width="186.676" height="186.676" rx="55.3387" fill="#EAF9F0"/>
<rect x="36.0791" y="45.8721" width="115.842" height="96.472" rx="23.2228" fill="#BDEED1" fill-opacity="0.49"/>
<path fill-rule="evenodd" clip-rule="evenodd" d="M53.8187 57.965C49.1386 59.1362 46.1931 64.0701 47.3747 68.7596C47.7354 70.1915 48.4125 71.4706 49.335 72.4629C50.1586 73.349 89.2638 100.378 90.6949 101.05C92.8764 102.075 95.476 102.037 97.7025 100.949C99.4493 100.095 137.759 73.5912 138.732 72.5635C143.304 67.734 140.809 59.5472 134.279 57.9563C132.561 57.5376 55.4936 57.546 53.8187 57.965ZM47.0933 100.245C47.0933 115.615 47.1549 122.667 47.2956 123.366C47.9682 126.712 50.588 129.44 53.903 130.248C55.6324 130.669 132.241 130.682 134.162 130.261C137.504 129.529 140.204 126.76 140.887 123.366C141.12 122.208 141.183 78.0858 140.951 78.192C140.876 78.2268 131.998 84.3375 121.222 91.7714C110.447 99.2053 101.04 105.595 100.318 105.971C98.2891 107.027 96.5685 107.431 94.0912 107.431C91.6139 107.431 89.8933 107.027 87.864 105.971C87.1421 105.595 77.7354 99.2053 66.96 91.7714C56.1848 84.3375 47.3068 78.2268 47.231 78.192C47.1551 78.1571 47.0933 88.0809 47.0933 100.245Z" fill="#1E8D4B"/>
</svg>
