<svg width="21" height="17" viewBox="0 0 21 17" fill="none" xmlns="http://www.w3.org/2000/svg">
<path d="M2.84281 16.5617V10.8868H0.774414V9.18659H2.84281V7.53236H0.774414V5.83217H2.84281V0.157227H8.44173L11.2234 5.83217H14.4686V0.157227H18.4271V5.83217H20.4598V7.53236H18.4271V9.18659H20.4598V10.8868H18.4271V16.5617H12.7925L9.93953 10.8868H6.80128V16.5617H2.84281ZM6.80128 9.18659H9.15497L8.37041 7.53236H6.72996L6.80128 9.18659ZM14.5756 12.9775H14.7539L14.6112 10.8868H13.6484L14.5756 12.9775ZM6.65863 5.83217H7.65717L6.62297 3.62652H6.48032L6.65863 5.83217ZM12.8995 9.18659H14.5399L14.4686 7.53236H12.0793L12.8995 9.18659Z" fill="#242424"/>
</svg>
