<svg width="25" height="26" viewBox="0 0 25 26" fill="none" xmlns="http://www.w3.org/2000/svg">
<rect x="0.146484" y="0.831055" width="24.6067" height="24.6067" rx="7.38202" fill="#F3F3F3"/>
<path d="M12.4504 6.4707C9.6237 6.4707 7.324 8.77041 7.324 11.5971C7.324 14.4238 9.6237 16.7235 12.4504 16.7235C15.2771 16.7235 17.5768 14.4238 17.5768 11.5971C17.5768 8.77041 15.2771 6.4707 12.4504 6.4707ZM12.4504 7.49598C14.7117 7.49598 16.5515 9.33585 16.5515 11.5971C16.5515 13.8584 14.7117 15.6982 12.4504 15.6982C10.1891 15.6982 8.34928 13.8584 8.34928 11.5971C8.34928 9.33585 10.1891 7.49598 12.4504 7.49598ZM6.09366 15.6982C5.64067 15.6982 5.27344 16.0655 5.27344 16.5185V19.7994H6.29872V16.7235H9.05672C8.62203 16.4328 8.22586 16.0884 7.87765 15.6982H6.09366ZM17.0232 15.6982C16.6749 16.0884 16.2788 16.4328 15.8441 16.7235H17.7819C18.2349 16.7235 18.6021 17.0907 18.6021 17.5437V19.7994H19.6274V16.5185C19.6274 16.0655 19.2601 15.6982 18.8071 15.6982H17.0232ZM7.324 17.7488V18.7741H17.5768V17.7488H7.324Z" fill="#295F2D"/>
<path d="M10.7872 13.1344V12.0704H10.3994V11.7516H10.7872V11.4414H10.3994V11.1226H10.7872V10.0586H11.837L12.3586 11.1226H12.9671V10.0586H13.7093V11.1226H14.0904V11.4414H13.7093V11.7516H14.0904V12.0704H13.7093V13.1344H12.6528L12.1179 12.0704H11.5295V13.1344H10.7872ZM11.5295 11.7516H11.9708L11.8237 11.4414H11.5161L11.5295 11.7516ZM12.9871 12.4624H13.0206L12.9938 12.0704H12.8133L12.9871 12.4624ZM11.5027 11.1226H11.6899L11.496 10.7091H11.4693L11.5027 11.1226ZM12.6729 11.7516H12.9804L12.9671 11.4414H12.5191L12.6729 11.7516Z" fill="#295F2D"/>
</svg>
