<svg width="55" height="56" viewBox="0 0 55 56" fill="none" xmlns="http://www.w3.org/2000/svg">
<rect width="54.1484" height="56" rx="7" fill="#EAF9F0"/>
<path d="M20.5882 34.4782V29.3264H19.0234V27.783H20.5882V26.2812H19.0234V24.7378H20.5882V19.5859H24.8239L26.9282 24.7378H29.3833V19.5859H32.3779V24.7378H33.9157V26.2812H32.3779V27.783H33.9157V29.3264H32.3779V34.4782H28.1153L25.957 29.3264H23.5829V34.4782H20.5882ZM23.5829 27.783H25.3635L24.7699 26.2812H23.5289L23.5829 27.783ZM29.4642 31.2245H29.5991L29.4912 29.3264H28.7628L29.4642 31.2245ZM23.4749 24.7378H24.2303L23.448 22.7354H23.34L23.4749 24.7378ZM28.1962 27.783H29.4373L29.3833 26.2812H27.5757L28.1962 27.783Z" fill="#176D3A"/>
</svg>
