<svg width="24" height="24" viewBox="0 0 24 24" fill="none" xmlns="http://www.w3.org/2000/svg">
<path d="M1.31191 8.68588L1.31173 8.68565L2.79035 7.4863L2.79258 7.48448L2.79255 7.48445C4.3878 6.10419 5.9495 4.24449 7.11098 2.73244C7.69209 1.97593 8.17375 1.30548 8.51018 0.824084C8.67312 0.59093 8.80202 0.40209 8.89168 0.26926C8.96662 1.30345 9.02123 2.26179 9.00655 2.7976C8.84187 3.02603 8.58817 3.49698 8.35027 4.04025C8.10337 4.60406 7.86899 5.25597 7.76702 5.8105L7.76688 5.81125C7.67072 6.36037 7.60603 7.05141 7.54768 7.69898C7.54424 7.73706 7.54084 7.77499 7.53744 7.81272C7.48287 8.41974 7.43282 8.97646 7.36637 9.33856C7.30071 9.6923 7.19736 10.047 7.06526 10.4029L7.06465 10.4045L7.06466 10.4045C6.92333 10.8093 6.74413 11.2046 6.54586 11.5706L6.54535 11.5716C6.3926 11.8617 6.15886 12.3159 5.98854 12.7727C5.90338 13.0012 5.83307 13.2329 5.79703 13.447C5.76133 13.659 5.75767 13.8628 5.81445 14.0307C5.85829 14.1679 5.93909 14.2813 6.08116 14.3442C6.27918 14.444 6.46847 14.4166 6.63447 14.3203C6.7962 14.2265 6.93764 14.0671 7.0572 13.8971C7.1777 13.7258 7.28132 13.5358 7.36478 13.3732C7.39557 13.3132 7.42308 13.2581 7.44756 13.2091C7.4914 13.1212 7.52555 13.0528 7.55159 13.0104C7.65958 12.8344 7.97623 12.2368 8.27262 11.6774C8.42957 11.3812 8.58085 11.0957 8.69244 10.8893C8.77239 10.9387 8.84181 10.9903 8.89503 11.0333C8.9225 11.0555 8.94547 11.0752 8.96313 11.0908C8.95297 11.1213 8.93907 11.1633 8.9225 11.2139C8.88662 11.3236 8.83816 11.474 8.78788 11.6371C8.68825 11.9602 8.5785 12.3421 8.54868 12.5504L8.54838 12.5525L8.5484 12.5525C8.52124 12.7802 8.46316 13.3866 8.40238 14.0213C8.35623 14.5032 8.30852 15.0014 8.27159 15.3625L8.27153 15.3631C8.24249 15.6674 8.23976 15.9617 8.27182 16.2175C8.30355 16.4707 8.37051 16.6958 8.48856 16.854C8.5784 16.9826 8.71543 17.0683 8.86831 17.081C9.12561 17.1082 9.33749 17.0336 9.48777 16.879C9.63595 16.7267 9.71505 16.5062 9.73025 16.2568C9.74445 16.0236 9.79679 15.3878 9.86231 14.745C9.92816 14.0989 10.0063 13.4572 10.071 13.2054C10.1375 12.9466 10.2398 12.5751 10.3257 12.2678C10.3686 12.1142 10.4073 11.9769 10.4353 11.878L10.4588 11.795L10.4694 11.7966C10.408 11.9837 10.3613 12.2494 10.3247 12.5556C10.2797 12.9317 10.2489 13.3802 10.228 13.8435C10.1862 14.7701 10.1838 15.7612 10.1885 16.3616C10.1886 16.8204 10.227 17.2181 10.3057 17.5337C10.3837 17.8467 10.5047 18.0929 10.681 18.2314L10.6834 18.2333L10.6834 18.2332C10.7916 18.3126 10.9171 18.3621 11.0667 18.3505C11.227 18.3438 11.3593 18.2645 11.4642 18.1546C11.5688 18.0451 11.6503 17.9011 11.7124 17.7529C11.8358 17.458 11.8915 17.1228 11.8863 16.9482C11.8767 16.6272 11.8676 14.9859 11.9522 14.385C11.9522 14.385 11.9522 14.3849 11.9522 14.3849L11.8626 14.3723C11.9368 13.8539 12.0395 12.462 12.066 12.0939L1.31191 8.68588ZM1.31191 8.68588L1.30592 8.68999C0.26116 9.40681 -0.190317 10.792 0.270493 11.9603L0.270847 11.9613C0.400122 12.2999 0.593975 12.6094 0.852755 12.8805L0.853489 12.8813L9.54349 22.2058C9.54357 22.2059 9.54366 22.206 9.54374 22.2061C10.5668 23.2873 12.2334 23.2877 13.2662 22.2055L22.2429 12.8006C23.1201 11.8815 23.2505 10.4766 22.6403 9.41051C22.6361 9.40349 22.6196 9.3824 22.5844 9.3438C22.5508 9.3071 22.5053 9.25992 22.4491 9.20347C22.3368 9.09069 22.1841 8.94318 22.0046 8.77285C21.6456 8.43231 21.181 8.00232 20.7208 7.58015C20.2607 7.15804 19.8054 6.74402 19.465 6.4355C19.2948 6.28125 19.1534 6.15339 19.0545 6.06409L18.9399 5.9606L18.9097 5.9334L18.902 5.92644L18.9 5.92468L18.8996 5.92424L18.8994 5.92413L18.96 5.85685L18.8994 5.92409L18.8994 5.92407C18.4863 5.55171 18.0923 5.14898 17.727 4.71584L17.7267 4.71549L14.1557 0.438232C14.1541 1.1018 14.1627 1.712 14.1722 2.17195C14.1776 2.43027 14.1832 2.64114 14.1875 2.78739C14.1897 2.86052 14.1915 2.91748 14.1928 2.95615L14.1933 2.97199M1.31191 8.68588L14.1933 2.97199M12.4918 12.0887C12.3985 12.1012 12.3068 12.1037 12.2335 12.1028C12.205 12.1024 12.179 12.1015 12.1563 12.1004L12.4918 12.0887ZM12.4918 12.0887C12.5509 12.5566 12.7703 14.5804 12.8314 15.2204L12.8314 15.2207C12.8346 15.2528 12.8379 15.2872 12.8414 15.3236C12.8695 15.6141 12.9099 16.0326 12.9827 16.4264C13.0237 16.648 13.0755 16.8649 13.1423 17.0488C13.2079 17.2294 13.2922 17.3901 13.405 17.4882C13.5062 17.5804 13.6343 17.6053 13.7661 17.5678C14.136 17.4676 14.2977 17.1265 14.3691 16.67C14.4408 16.2118 14.4286 15.5947 14.4144 14.8759L14.4143 14.8702L14.4143 14.8696C14.3762 13.4345 14.3096 12.0024 14.1376 10.9959C14.1294 10.152 14.3368 8.90642 15.3398 8.14375C15.4688 8.13519 15.5604 8.15877 15.6186 8.18296C15.6498 8.19592 15.672 8.20932 15.6856 8.2187C15.6873 8.21991 15.6889 8.22105 15.6904 8.22212C15.968 8.83926 16.2756 9.30214 16.605 9.64733C17.2136 10.285 17.877 10.4954 18.475 10.4749M14.1933 2.97199C15.1798 3.71351 15.7477 4.22163 16.1222 4.66939C16.5029 5.12452 16.6812 5.51432 16.8964 6.01023C17.0788 6.41733 17.2252 6.79905 17.3557 7.13916C17.3831 7.21035 17.4097 7.27971 17.4358 7.3471C17.5877 7.73934 17.7206 8.06062 17.8723 8.29657C18.1829 8.77977 18.606 9.26192 18.8937 9.50516C18.8939 9.50535 18.8941 9.50553 18.8944 9.50572L18.836 9.57485C19.1317 9.81472 19.3606 10.3444 18.5021 10.3844L14.1933 2.97199Z" fill="white" stroke="#112813" stroke-width="0.181007"/>
</svg>
