<svg width="24" height="24" viewBox="0 0 24 24" fill="none" xmlns="http://www.w3.org/2000/svg">
<path d="M9 22H15C20 22 22 20 22 15V9C22 4 20 2 15 2H9C4 2 2 4 2 9V15C2 20 4 22 9 22Z" stroke="#484848" stroke-width="1.5" stroke-linecap="round" stroke-linejoin="round"/>
<path d="M15.5681 18.5V14.6M15.5681 7.45V5.5M15.5681 7.45C15.9096 7.45 16.2477 7.51725 16.5631 7.64791C16.8785 7.77858 17.1652 7.97009 17.4066 8.21152C17.648 8.45295 17.8395 8.73958 17.9702 9.05502C18.1009 9.37047 18.1681 9.70856 18.1681 10.05C18.1681 10.3914 18.1009 10.7295 17.9702 11.045C17.8395 11.3604 17.648 11.647 17.4066 11.8885C17.1652 12.1299 16.8785 12.3214 16.5631 12.4521C16.2477 12.5827 15.9096 12.65 15.5681 12.65C14.8786 12.65 14.2172 12.3761 13.7296 11.8885C13.2421 11.4009 12.9681 10.7396 12.9681 10.05C12.9681 9.36044 13.2421 8.69912 13.7296 8.21152C14.2172 7.72393 14.8786 7.45 15.5681 7.45ZM8.42813 18.5V16.55M8.42813 16.55C8.76956 16.55 9.10766 16.4827 9.4231 16.3521C9.73855 16.2214 10.0252 16.0299 10.2666 15.7885C10.508 15.547 10.6995 15.2604 10.8302 14.945C10.9609 14.6295 11.0281 14.2914 11.0281 13.95C11.0281 13.6086 10.9609 13.2705 10.8302 12.955C10.6995 12.6396 10.508 12.353 10.2666 12.1115C10.0252 11.8701 9.73855 11.6786 9.4231 11.5479C9.10766 11.4173 8.76956 11.35 8.42813 11.35C7.73856 11.35 7.07724 11.6239 6.58965 12.1115C6.10205 12.5991 5.82813 13.2604 5.82812 13.95C5.82812 14.6396 6.10205 15.3009 6.58965 15.7885C7.07724 16.2761 7.73856 16.55 8.42813 16.55ZM8.42813 9.4V5.5" stroke="#484848" stroke-width="1.5" stroke-miterlimit="10" stroke-linecap="round" stroke-linejoin="round"/>
</svg>
