<svg width="18" height="18" viewBox="0 0 18 18" fill="none" xmlns="http://www.w3.org/2000/svg">
<g id="fluent:share-20-regular">
<path id="Vector" d="M11.9639 11.5259L15.9665 7.5892L16.0172 7.53135C16.0923 7.4305 16.1285 7.30594 16.1192 7.18054C16.1099 7.05514 16.0557 6.93731 15.9665 6.84867L11.9639 2.9137L11.9087 2.86653C11.5883 2.62621 11.1165 2.85763 11.1165 3.28397V5.1798L10.9163 5.19315C7.74498 5.44415 5.88742 7.45124 5.44417 11.0916C5.3872 11.5589 5.92302 11.8517 6.27015 11.542C7.54382 10.4045 8.86023 9.69776 10.2265 9.41472C10.4454 9.36932 10.6653 9.33461 10.8869 9.31058L11.1165 9.29011V11.1557L11.121 11.2287C11.1744 11.6319 11.663 11.8214 11.9639 11.5259ZM10.9812 6.08054L12.0066 6.01201V4.20251L15.0737 7.21804L12.0066 10.2354V8.31549L10.7997 8.42408H10.7926C9.27677 8.58696 7.84644 9.19398 6.49622 10.206C6.76146 9.01419 7.2145 8.1179 7.80995 7.47616C8.5487 6.67956 9.58118 6.19269 10.9812 6.08054ZM4.99469 3.65958C4.40454 3.65958 3.83856 3.89401 3.42126 4.31131C3.00397 4.72861 2.76953 5.29458 2.76953 5.88473V13.0052C2.76953 13.5954 3.00397 14.1614 3.42126 14.5786C3.83856 14.9959 4.40454 15.2304 4.99469 15.2304H12.1152C12.7053 15.2304 13.2713 14.9959 13.6886 14.5786C14.1059 14.1614 14.3403 13.5954 14.3403 13.0052V12.1152C14.3403 11.9971 14.2935 11.8839 14.21 11.8005C14.1265 11.717 14.0133 11.6701 13.8953 11.6701C13.7773 11.6701 13.6641 11.717 13.5806 11.8005C13.4972 11.8839 13.4503 11.9971 13.4503 12.1152V13.0052C13.4503 13.3593 13.3096 13.6989 13.0592 13.9493C12.8089 14.1997 12.4693 14.3403 12.1152 14.3403H4.99469C4.6406 14.3403 4.30101 14.1997 4.05063 13.9493C3.80025 13.6989 3.65959 13.3593 3.65959 13.0052V5.88473C3.65959 5.53064 3.80025 5.19106 4.05063 4.94068C4.30101 4.6903 4.6406 4.54964 4.99469 4.54964H7.66487C7.7829 4.54964 7.8961 4.50275 7.97956 4.41929C8.06302 4.33583 8.1099 4.22264 8.1099 4.10461C8.1099 3.98658 8.06302 3.87338 7.97956 3.78992C7.8961 3.70646 7.7829 3.65958 7.66487 3.65958H4.99469Z" fill="#295F2D"/>
</g>
</svg>
