<svg width="24" height="20" viewBox="0 0 24 20" fill="none" xmlns="http://www.w3.org/2000/svg">
<path d="M21.5057 5.14052C21.5203 5.35129 21.5203 5.56206 21.5203 5.77483C21.5203 12.2557 16.5865 19.7301 7.56499 19.7301V19.7261C4.89987 19.73 2.28995 18.9667 0.046875 17.5274C0.434422 17.574 0.823828 17.5973 1.2143 17.5982C3.42319 17.5999 5.56853 16.859 7.30561 15.4946C6.28215 15.4752 5.29032 15.1365 4.46879 14.5259C3.64725 13.9152 3.03708 13.0631 2.72358 12.0886C3.4584 12.2303 4.21594 12.2014 4.93783 12.0041C2.64973 11.5418 1.00352 9.53143 1.00352 7.19659V7.13443C1.68564 7.51436 2.44903 7.72488 3.22946 7.74829C1.07445 6.30794 0.410117 3.44092 1.71141 1.19931C2.94276 2.71456 4.47908 3.95384 6.2206 4.83664C7.96211 5.71945 9.86985 6.22603 11.8199 6.32348C11.6255 5.48655 11.6542 4.61323 11.9032 3.79088C12.1522 2.96853 12.6127 2.22597 13.2387 1.63746C15.2142 -0.219529 18.3211 -0.124303 20.1781 1.85009C21.2764 1.63323 22.3297 1.23057 23.2926 0.659424C22.9265 1.79505 22.1603 2.75902 21.1366 3.37199C22.1088 3.25744 23.0583 2.99717 23.9531 2.59995C23.2949 3.58568 22.4661 4.44593 21.5057 5.14052Z" fill="white"/>
</svg>
