<svg width="404" height="340" viewBox="0 0 404 340" fill="none" xmlns="http://www.w3.org/2000/svg">
<path d="M197.238 41.7885C197.991 41.5558 198.705 42.2451 198.498 43.0057L197.315 47.3672C197.266 47.55 197.269 47.7432 197.325 47.9243L198.66 52.2418C198.892 52.9948 198.203 53.7085 197.442 53.5022L193.081 52.3192C192.898 52.2696 192.705 52.273 192.524 52.329L188.206 53.6634C187.453 53.8962 186.74 53.2069 186.946 52.4462L188.129 48.0848C188.178 47.9019 188.175 47.7087 188.119 47.5277L186.785 43.2102C186.552 42.4572 187.241 41.7434 188.002 41.9498L192.363 43.1327C192.546 43.1823 192.739 43.179 192.92 43.123L197.238 41.7885Z" fill="#BDEED1"/>
<rect x="63.5" width="316" height="316" rx="158" fill="#EAF9F0"/>
<path d="M221.5 60.5C167.777 60.5 124 104.277 124 158C124 211.723 167.777 255.5 221.5 255.5C275.223 255.5 319 211.723 319 158C319 104.277 275.223 60.5 221.5 60.5ZM268.105 135.575L212.822 190.857C211.457 192.223 209.605 193.003 207.655 193.003C205.705 193.003 203.853 192.223 202.488 190.857L174.895 163.265C172.067 160.438 172.067 155.757 174.895 152.93C177.722 150.102 182.402 150.102 185.23 152.93L207.655 175.355L257.77 125.24C260.598 122.413 265.278 122.413 268.105 125.24C270.933 128.068 270.933 132.65 268.105 135.575Z" fill="#12542C"/>
<path d="M97.8992 155.404C98.0184 154.06 99.9816 154.06 100.101 155.404C100.202 156.539 101.747 156.797 102.211 155.756C102.76 154.524 104.617 155.161 104.294 156.471C104.02 157.577 105.398 158.323 106.175 157.489C107.094 156.502 108.644 157.708 107.913 158.841C107.295 159.799 108.356 160.952 109.362 160.415C110.551 159.78 111.625 161.424 110.566 162.259C109.67 162.964 110.3 164.399 111.425 164.218C112.757 164.004 113.239 165.907 111.966 166.352C110.89 166.729 111.019 168.29 112.143 168.484C113.471 168.714 113.309 170.671 111.961 170.679C110.821 170.685 110.436 172.204 111.435 172.753C112.618 173.401 111.829 175.199 110.551 174.769C109.471 174.405 108.614 175.717 109.381 176.56C110.288 177.557 108.959 179.002 107.89 178.18C106.986 177.485 105.75 178.447 106.201 179.494C106.736 180.732 105.009 181.666 104.265 180.542C103.636 179.591 102.154 180.1 102.241 181.237C102.345 182.581 100.408 182.904 100.07 181.599C99.7834 180.495 98.2166 180.495 97.9302 181.599C97.5916 182.904 95.6551 182.581 95.7586 181.237C95.8461 180.1 94.3641 179.591 93.735 180.542C92.9908 181.666 91.2642 180.732 91.7987 179.494C92.2505 178.447 91.014 177.485 90.1103 178.18C89.0413 179.002 87.7116 177.557 88.6191 176.56C89.3863 175.717 88.5293 174.405 87.4489 174.769C86.1709 175.199 85.3823 173.401 86.5645 172.753C87.5639 172.204 87.1793 170.685 86.0393 170.679C84.6907 170.671 84.5286 168.714 85.8575 168.484C86.9808 168.29 87.1102 166.729 86.0342 166.352C84.7612 165.907 85.2432 164.004 86.5746 164.218C87.7002 164.399 88.3296 162.964 87.4341 162.259C86.3747 161.424 87.4485 159.78 88.6383 160.415C89.6441 160.952 90.7053 159.799 90.0873 158.841C89.3563 157.708 90.9056 156.502 91.8248 157.489C92.6018 158.323 93.9798 157.577 93.7064 156.471C93.383 155.161 95.2399 154.524 95.7888 155.756C96.2529 156.797 97.7984 156.539 97.8992 155.404Z" fill="#BDEED1"/>
<path d="M347.59 147.621C347.634 147.121 348.366 147.121 348.41 147.621C348.448 148.044 349.023 148.14 349.196 147.752C349.401 147.293 350.093 147.531 349.972 148.018C349.87 148.431 350.384 148.709 350.673 148.398C351.016 148.03 351.593 148.479 351.32 148.902C351.09 149.259 351.486 149.688 351.86 149.488C352.303 149.252 352.704 149.864 352.309 150.175C351.975 150.438 352.21 150.972 352.629 150.905C353.125 150.825 353.305 151.534 352.83 151.7C352.43 151.84 352.478 152.422 352.896 152.494C353.391 152.58 353.331 153.309 352.828 153.312C352.404 153.314 352.26 153.88 352.633 154.084C353.073 154.326 352.779 154.996 352.303 154.835C351.901 154.7 351.582 155.189 351.867 155.503C352.205 155.874 351.71 156.412 351.312 156.106C350.975 155.847 350.515 156.206 350.683 156.596C350.882 157.057 350.239 157.405 349.961 156.986C349.727 156.632 349.175 156.822 349.208 157.245C349.246 157.746 348.525 157.866 348.399 157.38C348.292 156.969 347.708 156.969 347.601 157.38C347.475 157.866 346.754 157.746 346.792 157.245C346.825 156.822 346.273 156.632 346.039 156.986C345.761 157.405 345.118 157.057 345.317 156.596C345.485 156.206 345.025 155.847 344.688 156.106C344.29 156.412 343.795 155.874 344.133 155.503C344.418 155.189 344.099 154.7 343.697 154.835C343.221 154.996 342.927 154.326 343.367 154.084C343.74 153.88 343.596 153.314 343.172 153.312C342.669 153.309 342.609 152.58 343.104 152.494C343.522 152.422 343.57 151.84 343.17 151.7C342.695 151.534 342.875 150.825 343.371 150.905C343.79 150.972 344.025 150.438 343.691 150.175C343.296 149.864 343.697 149.252 344.14 149.488C344.514 149.688 344.91 149.259 344.68 148.902C344.407 148.479 344.984 148.03 345.327 148.398C345.616 148.709 346.13 148.431 346.028 148.018C345.907 147.531 346.599 147.293 346.804 147.752C346.977 148.14 347.552 148.044 347.59 147.621Z" fill="#BDEED1"/>
<g style="mix-blend-mode:multiply">
<path d="M221 275L221.377 279.243L223.111 275.352L222.089 279.488L224.992 276.371L222.683 279.95L226.442 277.945L223.095 280.581L227.301 279.904L223.28 281.311L227.478 282.037L223.218 282.062L226.953 284.111L222.915 282.751L225.782 285.902L222.405 283.306L224.094 287.217L221.743 283.664L222.07 287.911L221 283.788L219.93 287.911L220.257 283.664L217.906 287.217L219.595 283.306L216.218 285.902L219.085 282.751L215.047 284.111L218.782 282.062L214.522 282.037L218.72 281.311L214.699 279.904L218.905 280.581L215.558 277.945L219.317 279.95L217.008 276.371L219.911 279.488L218.889 275.352L220.623 279.243L221 275Z" fill="#BDEED1"/>
</g>
<g style="mix-blend-mode:darken">
<path d="M235 41L235.377 45.2432L237.111 41.3522L236.089 45.4878L238.992 42.3706L236.683 45.9504L240.442 43.9448L237.095 46.5809L241.301 45.9043L237.28 47.3111L241.478 48.0368L237.218 48.0617L240.953 50.111L236.915 48.7514L239.782 51.9023L236.405 49.3056L238.094 53.2166L235.743 49.664L236.07 53.9113L235 49.788L233.93 53.9113L234.257 49.664L231.906 53.2166L233.595 49.3056L230.218 51.9023L233.085 48.7514L229.047 50.111L232.782 48.0617L228.522 48.0368L232.72 47.3111L228.699 45.9043L232.905 46.5809L229.558 43.9448L233.317 45.9504L231.008 42.3706L233.911 45.4878L232.889 41.3522L234.623 45.2432L235 41Z" fill="#BDEED1"/>
</g>
<g style="mix-blend-mode:darken">
<path d="M326 199L326.203 201.285L327.136 199.19L326.586 201.416L328.15 199.738L326.906 201.666L328.93 200.586L327.128 202.005L329.393 201.641L327.228 202.398L329.488 202.789L327.194 202.802L329.205 203.906L327.031 203.174L328.575 204.87L326.757 203.472L327.666 205.578L326.4 203.665L326.576 205.952L326 203.732L325.424 205.952L325.6 203.665L324.334 205.578L325.243 203.472L323.425 204.87L324.969 203.174L322.795 203.906L324.806 202.802L322.512 202.789L324.772 202.398L322.607 201.641L324.872 202.005L323.07 200.586L325.094 201.666L323.85 199.738L325.414 201.416L324.864 199.19L325.797 201.285L326 199Z" fill="#176D3A"/>
</g>
<path d="M193.5 29L193.732 31.6112L194.799 29.2167L194.17 31.7617L195.957 29.8434L194.536 32.0464L196.849 30.8122L194.789 32.4344L197.378 32.0181L194.903 32.8837L197.486 33.3303L194.865 33.3456L197.163 34.6068L194.679 33.7701L196.443 35.7091L194.365 34.1111L195.404 36.5179L193.957 34.3317L194.158 36.9454L193.5 34.408L192.842 36.9454L193.043 34.3317L191.596 36.5179L192.635 34.1111L190.557 35.7091L192.321 33.7701L189.837 34.6068L192.135 33.3456L189.514 33.3303L192.097 32.8837L189.622 32.0181L192.211 32.4344L190.151 30.8122L192.464 32.0464L191.043 29.8434L192.83 31.7617L192.201 29.2167L193.268 31.6112L193.5 29Z" fill="#9DE5BA"/>
<path d="M319.745 3.20836C320.504 1.82127 322.496 1.82127 323.255 3.20836L333.593 22.1117C333.777 22.4473 334.053 22.7232 334.388 22.9067L353.292 33.2453C354.679 34.0039 354.679 35.9961 353.292 36.7547L334.388 47.0933C334.053 47.2768 333.777 47.5527 333.593 47.8883L323.255 66.7916C322.496 68.1787 320.504 68.1787 319.745 66.7916L309.407 47.8883C309.223 47.5527 308.947 47.2768 308.612 47.0933L289.708 36.7547C288.321 35.9961 288.321 34.0039 289.708 33.2453L308.612 22.9067C308.947 22.7232 309.223 22.4473 309.407 22.1117L319.745 3.20836Z" fill="#9DE5BA"/>
<path d="M144.736 243.832C145.003 243.091 145.983 242.936 146.467 243.558L150.592 248.872C150.709 249.022 150.865 249.136 151.043 249.2L157.372 251.482C158.114 251.749 158.269 252.729 157.646 253.212L152.332 257.338C152.182 257.454 152.069 257.61 152.005 257.789L149.723 264.118C149.456 264.859 148.476 265.014 147.992 264.392L143.867 259.078C143.75 258.928 143.594 258.814 143.416 258.75L137.087 256.469C136.345 256.201 136.19 255.221 136.813 254.738L142.127 250.612C142.276 250.496 142.39 250.34 142.454 250.161L144.736 243.832Z" fill="#70D99B"/>
<path d="M115.463 95.5307L116.818 97.2754L118.895 98.0245L117.151 99.379L116.402 101.457L115.047 99.7121L112.969 98.9631L114.714 97.6086L115.463 95.5307Z" fill="#176D3A"/>
<path d="M98.4631 165.531L99.8176 167.275L101.895 168.024L100.151 169.379L99.4017 171.457L98.0472 169.712L95.9693 168.963L97.714 167.609L98.4631 165.531Z" fill="#176D3A"/>
<path d="M308.463 237.531L309.818 239.275L311.895 240.024L310.151 241.379L309.402 243.457L308.047 241.712L305.969 240.963L307.714 239.609L308.463 237.531Z" fill="#1E8D4B"/>
<path d="M301.463 72.5307L302.818 74.2754L304.895 75.0245L303.151 76.379L302.402 78.4568L301.047 76.7121L298.969 75.9631L300.714 74.6086L301.463 72.5307Z" fill="#1E8D4B"/>
<path d="M347.463 149.531L348.818 151.275L350.895 152.024L349.151 153.379L348.402 155.457L347.047 153.712L344.969 152.963L346.714 151.609L347.463 149.531Z" fill="#1E8D4B"/>
<g style="mix-blend-mode:hard-light">
<path d="M245.463 142.531L246.818 144.275L248.895 145.024L247.151 146.379L246.402 148.457L245.047 146.712L242.969 145.963L244.714 144.609L245.463 142.531Z" fill="#1E8D4B"/>
</g>
</svg>
